<?xml version="1.0" encoding="UTF-8" standalone="no"?><!DOCTYPE score-partwise PUBLIC "-//Recordare//DTD MusicXML 2.0 Partwise//EN" "http://www.musicxml.org/dtds/partwise.dtd"><score-partwise version="2.0">	<work>		<work-title>Happy Birthday</work-title>	</work>	<identification>		<encoding>			<software>PDFtoMusic Pro v1.6.5 Build 1B9E3 (c) Myriad - http://www.myriad-online.com</software>			<?PDFtoMusic Document type 0100- 00000000?>			<supports attribute="new-system" element="print" type="yes" value="yes"/>			<supports attribute="new-page" element="print" type="yes" value="yes"/>		</encoding>	</identification>	<defaults>		<scaling>			<millimeters>7.056005</millimeters>			<tenths>40</tenths>		</scaling>		<page-layout>			<page-height>1683.893</page-height>			<page-width>1189.924</page-width>			<page-margins type="both">				<left-margin>56.689</left-margin>				<right-margin>56.689</right-margin>				<top-margin>56.689</top-margin>				 <bottom-margin>56.689</bottom-margin>			</page-margins>		</page-layout>		<appearance>			<line-width type="stem">1.3000</line-width>			<line-width type="beam">5.0000</line-width>			<line-width type="staff">0.8000</line-width>			<line-width type="light barline">1.5250</line-width>			<line-width type="heavy barline">5.0000</line-width>		</appearance>	</defaults>	<credit page="1">		<credit-words  default-x="358.420" default-y="1577.207" justify="left" valign="baseline" font-family="DejaVuSans" font-size="27" font-weight="bold" font-style="normal">Happy Birthday</credit-words>	</credit>	<part-list>		<score-part id="P1">			<part-name></part-name>			<score-instrument id="P1-I1">				<instrument-name>Instrument 1</instrument-name>			</score-instrument>			<midi-instrument id="P1-I1">				<midi-channel>1</midi-channel>				<midi-bank>1</midi-bank>				<midi-program>1</midi-program>				<volume>50</volume>				<pan>0</pan>				<elevation>0</elevation>				<?Myriad				<iddigit>0</iddigit>				?>			</midi-instrument>		</score-part>	</part-list>	<part id="P1">		<!--==========================[1,1]=============================-->		<measure number="1" width="62">			<print new-page="yes">				<system-layout>					<system-margins>						<left-margin>-0.000</left-margin>						<right-margin>0.000</right-margin>					</system-margins>					<top-system-distance>169.600</top-system-distance>				</system-layout>			</print>			<attributes>				<divisions>6720</divisions>				<time>					<beats>3</beats>					<beat-type>4</beat-type>				</time>				<clef number="1">					<sign>G</sign>					<line>2</line>				</clef>				<staff-details number="1" print-object="yes">					<staff-lines>5</staff-lines>					<staff-size>100.00</staff-size>				</staff-details>			</attributes>			<direction placement="above">				<direction-type>					<words font-family="FreeSerifBold" font-size="12" font-weight="bold" font-style="normal" relative-x="54.05" default-y="39.60"></words>				</direction-type>				<direction-type>					<metronome font-family="FreeSerifBold" font-size="12" font-weight="bold" font-style="normal" relative-x="111.29" default-y="39.60">						<beat-unit>quarter</beat-unit>						<per-minute>100</per-minute>					</metronome>				</direction-type>				<sound tempo="100.00"/>			</direction>		</measure>		<!--==========================[1,2]=============================-->		<measure number="2" width="222">			<barline location="left">				<repeat direction="forward"/>			</barline>			<note>				<pitch>					<step>G</step>					<octave>4</octave>				</pitch>				<duration>3360</duration>				<voice>1</voice>				<type>eighth</type>				<stem default-y="2.10">up</stem>				<beam number="1">begin</beam>			</note>			<note>				<pitch>					<step>G</step>					<octave>4</octave>				</pitch>				<duration>3360</duration>				<voice>1</voice>				<type>eighth</type>				<stem default-y="2.10">up</stem>				<beam number="1">end</beam>			</note>			<note>				<pitch>					<step>A</step>					<octave>4</octave>				</pitch>				<duration>6720</duration>				<voice>1</voice>				<type>quarter</type>				<stem default-y="7.75">up</stem>			</note>			<note>				<pitch>					<step>G</step>					<octave>4</octave>				</pitch>				<duration>6720</duration>				<voice>1</voice>				<type>quarter</type>				<stem default-y="4.00">up</stem>			</note>		</measure>		<!--==========================[1,3]=============================-->		<measure number="3" width="190">			<note>				<pitch>					<step>C</step>					<octave>5</octave>				</pitch>				<duration>3360</duration>				<voice>1</voice>				<type>eighth</type>				<stem default-y="-43.55">down</stem>				<beam number="1">begin</beam>			</note>			<note>				<pitch>					<step>C</step>					<octave>5</octave>				</pitch>				<duration>3360</duration>				<voice>1</voice>				<type>eighth</type>				<stem default-y="-43.55">down</stem>				<beam number="1">end</beam>			</note>			<note>				<pitch>					<step>B</step>					<octave>4</octave>				</pitch>				<duration>13440</duration>				<voice>1</voice>				<type>half</type>				<stem default-y="-52.30">down</stem>			</note>		</measure>		<!--==========================[1,4]=============================-->		<measure number="4" width="205">			<note>				<pitch>					<step>G</step>					<octave>4</octave>				</pitch>				<duration>3360</duration>				<voice>1</voice>				<type>eighth</type>				<stem default-y="2.10">up</stem>				<beam number="1">begin</beam>			</note>			<note>				<pitch>					<step>G</step>					<octave>4</octave>				</pitch>				<duration>3360</duration>				<voice>1</voice>				<type>eighth</type>				<stem default-y="2.10">up</stem>				<beam number="1">end</beam>			</note>			<note>				<pitch>					<step>A</step>					<octave>4</octave>				</pitch>				<duration>6720</duration>				<voice>1</voice>				<type>quarter</type>				<stem default-y="7.75">up</stem>			</note>			<note>				<pitch>					<step>G</step>					<octave>4</octave>				</pitch>				<duration>6720</duration>				<voice>1</voice>				<type>quarter</type>				<stem default-y="4.00">up</stem>			</note>		</measure>		<!--==========================[1,5]=============================-->		<measure number="5" width="190">			<note>				<pitch>					<step>D</step>					<octave>5</octave>				</pitch>				<duration>3360</duration>				<voice>1</voice>				<type>eighth</type>				<stem default-y="-41.05">down</stem>				<beam number="1">begin</beam>			</note>			<note>				<pitch>					<step>D</step>					<octave>5</octave>				</pitch>				<duration>3360</duration>				<voice>1</voice>				<type>eighth</type>				<stem default-y="-41.05">down</stem>				<beam number="1">end</beam>			</note>			<note>				<pitch>					<step>C</step>					<octave>5</octave>				</pitch>				<duration>13440</duration>				<voice>1</voice>				<type>half</type>				<stem default-y="-48.55">down</stem>			</note>		</measure>		<!--==========================[1,6]=============================-->		<measure number="6" width="206">			<note>				<pitch>					<step>G</step>					<octave>4</octave>				</pitch>				<duration>3360</duration>				<voice>1</voice>				<type>eighth</type>				<stem default-y="2.10">up</stem>				<beam number="1">begin</beam>			</note>			<note>				<pitch>					<step>G</step>					<octave>4</octave>				</pitch>				<duration>3360</duration>				<voice>1</voice>				<type>eighth</type>				<stem default-y="2.10">up</stem>				<beam number="1">end</beam>			</note>			<note>				<pitch>					<step>G</step>					<octave>5</octave>				</pitch>				<duration>6720</duration>				<voice>1</voice>				<type>quarter</type>				<stem default-y="-31.05">down</stem>			</note>			<note>				<pitch>					<step>E</step>					<octave>5</octave>				</pitch>				<duration>6720</duration>				<voice>1</voice>				<type>quarter</type>				<stem default-y="-41.05">down</stem>			</note>		</measure>		<!--==========================[1,7]=============================-->		<measure number="7" width="245">			<print new-system="yes">				<system-layout>					<system-margins>						<left-margin>-0.000</left-margin>						<right-margin>0.000</right-margin>					</system-margins>					<system-distance>90.000</system-distance>				</system-layout>			</print>			<attributes>				<staff-details number="1" print-object="yes">				</staff-details>			</attributes>			<note>				<pitch>					<step>C</step>					<octave>5</octave>				</pitch>				<duration>3360</duration>				<voice>1</voice>				<type>eighth</type>				<stem default-y="-43.55">down</stem>				<beam number="1">begin</beam>			</note>			<note>				<pitch>					<step>C</step>					<octave>5</octave>				</pitch>				<duration>3360</duration>				<voice>1</voice>				<type>eighth</type>				<stem default-y="-43.55">down</stem>				<beam number="1">end</beam>			</note>			<note>				<pitch>					<step>B</step>					<octave>4</octave>				</pitch>				<duration>6720</duration>				<voice>1</voice>				<type>quarter</type>				<stem default-y="-52.30">down</stem>			</note>			<note>				<pitch>					<step>A</step>					<octave>4</octave>				</pitch>				<duration>6720</duration>				<voice>1</voice>				<type>quarter</type>				<stem default-y="7.75">up</stem>			</note>		</measure>		<!--==========================[1,8]=============================-->		<measure number="8" width="218">			<note>				<pitch>					<step>F</step>					<octave>5</octave>				</pitch>				<duration>3360</duration>				<voice>1</voice>				<type>eighth</type>				<stem default-y="-31.05">down</stem>				<beam number="1">begin</beam>			</note>			<note>				<pitch>					<step>F</step>					<octave>5</octave>				</pitch>				<duration>3360</duration>				<voice>1</voice>				<type>eighth</type>				<stem default-y="-31.05">down</stem>				<beam number="1">end</beam>			</note>			<note>				<pitch>					<step>E</step>					<octave>5</octave>				</pitch>				<duration>6720</duration>				<voice>1</voice>				<type>quarter</type>				<stem default-y="-41.05">down</stem>			</note>			<note>				<pitch>					<step>C</step>					<octave>5</octave>				</pitch>				<duration>6720</duration>				<voice>1</voice>				<type>quarter</type>				<stem default-y="-48.55">down</stem>			</note>		</measure>		<!--==========================[1,9]=============================-->		<measure number="9" width="188">			<note>				<pitch>					<step>D</step>					<octave>5</octave>				</pitch>				<duration>6720</duration>				<voice>1</voice>				<type>quarter</type>				<stem default-y="-44.80">down</stem>			</note>			<note>				<pitch>					<step>C</step>					<octave>5</octave>				</pitch>				<duration>13440</duration>				<voice>1</voice>				<type>half</type>				<stem default-y="-48.55">down</stem>			</note>		</measure>		<!--==========================[1,10]=============================-->		<measure number="10" width="218">			<note>				<pitch>					<step>G</step>					<octave>4</octave>				</pitch>				<duration>3360</duration>				<voice>1</voice>				<type>eighth</type>				<stem default-y="2.10">up</stem>				<beam number="1">begin</beam>			</note>			<note>				<pitch>					<step>G</step>					<octave>4</octave>				</pitch>				<duration>3360</duration>				<voice>1</voice>				<type>eighth</type>				<stem default-y="2.10">up</stem>				<beam number="1">end</beam>			</note>			<note>				<pitch>					<step>A</step>					<octave>4</octave>				</pitch>				<duration>6720</duration>				<voice>1</voice>				<type>quarter</type>				<stem default-y="7.75">up</stem>			</note>			<note>				<pitch>					<step>G</step>					<octave>4</octave>				</pitch>				<duration>6720</duration>				<voice>1</voice>				<type>quarter</type>				<stem default-y="4.00">up</stem>			</note>		</measure>		<!--==========================[1,11]=============================-->		<measure number="11" width="205">			<note>				<pitch>					<step>C</step>					<octave>5</octave>				</pitch>				<duration>3360</duration>				<voice>1</voice>				<type>eighth</type>				<stem default-y="-43.55">down</stem>				<beam number="1">begin</beam>			</note>			<note>				<pitch>					<step>C</step>					<octave>5</octave>				</pitch>				<duration>3360</duration>				<voice>1</voice>				<type>eighth</type>				<stem default-y="-43.55">down</stem>				<beam number="1">end</beam>			</note>			<note>				<pitch>					<step>B</step>					<octave>4</octave>				</pitch>				<duration>13440</duration>				<voice>1</voice>				<type>half</type>				<stem default-y="-52.30">down</stem>			</note>		</measure>		<!--==========================[1,12]=============================-->		<measure number="12" width="203">			<print new-system="yes">				<system-layout>					<system-margins>						<left-margin>-0.000</left-margin>						<right-margin>4.000</right-margin>					</system-margins>					<system-distance>90.000</system-distance>				</system-layout>			</print>			<attributes>				<staff-details number="1" print-object="yes">				</staff-details>			</attributes>			<note>				<pitch>					<step>G</step>					<octave>4</octave>				</pitch>				<duration>3360</duration>				<voice>1</voice>				<type>eighth</type>				<stem default-y="2.10">up</stem>				<beam number="1">begin</beam>			</note>			<note>				<pitch>					<step>G</step>					<octave>4</octave>				</pitch>				<duration>3360</duration>				<voice>1</voice>				<type>eighth</type>				<stem default-y="2.10">up</stem>				<beam number="1">end</beam>			</note>			<note>				<pitch>					<step>A</step>					<octave>4</octave>				</pitch>				<duration>6720</duration>				<voice>1</voice>				<type>quarter</type>				<stem default-y="7.75">up</stem>			</note>			<note>				<pitch>					<step>G</step>					<octave>4</octave>				</pitch>				<duration>6720</duration>				<voice>1</voice>				<type>quarter</type>				<stem default-y="4.00">up</stem>			</note>		</measure>		<!--==========================[1,13]=============================-->		<measure number="13" width="161">			<note>				<pitch>					<step>D</step>					<octave>5</octave>				</pitch>				<duration>3360</duration>				<voice>1</voice>				<type>eighth</type>				<stem default-y="-41.05">down</stem>				<beam number="1">begin</beam>			</note>			<note>				<pitch>					<step>D</step>					<octave>5</octave>				</pitch>				<duration>3360</duration>				<voice>1</voice>				<type>eighth</type>				<stem default-y="-41.05">down</stem>				<beam number="1">end</beam>			</note>			<note>				<pitch>					<step>C</step>					<octave>5</octave>				</pitch>				<duration>13440</duration>				<voice>1</voice>				<type>half</type>				<stem default-y="-48.55">down</stem>			</note>		</measure>		<!--==========================[1,14]=============================-->		<measure number="14" width="176">			<note>				<pitch>					<step>G</step>					<octave>4</octave>				</pitch>				<duration>3360</duration>				<voice>1</voice>				<type>eighth</type>				<stem default-y="2.10">up</stem>				<beam number="1">begin</beam>			</note>			<note>				<pitch>					<step>G</step>					<octave>4</octave>				</pitch>				<duration>3360</duration>				<voice>1</voice>				<type>eighth</type>				<stem default-y="2.10">up</stem>				<beam number="1">end</beam>			</note>			<note>				<pitch>					<step>G</step>					<octave>5</octave>				</pitch>				<duration>6720</duration>				<voice>1</voice>				<type>quarter</type>				<stem default-y="-31.05">down</stem>			</note>			<note>				<pitch>					<step>E</step>					<octave>5</octave>				</pitch>				<duration>6720</duration>				<voice>1</voice>				<type>quarter</type>				<stem default-y="-41.05">down</stem>			</note>		</measure>		<!--==========================[1,15]=============================-->		<measure number="15" width="176">			<note>				<pitch>					<step>C</step>					<octave>5</octave>				</pitch>				<duration>3360</duration>				<voice>1</voice>				<type>eighth</type>				<stem default-y="-43.55">down</stem>				<beam number="1">begin</beam>			</note>			<note>				<pitch>					<step>C</step>					<octave>5</octave>				</pitch>				<duration>3360</duration>				<voice>1</voice>				<type>eighth</type>				<stem default-y="-43.55">down</stem>				<beam number="1">end</beam>			</note>			<note>				<pitch>					<step>B</step>					<octave>4</octave>				</pitch>				<duration>6720</duration>				<voice>1</voice>				<type>quarter</type>				<stem default-y="-52.30">down</stem>			</note>			<note>				<pitch>					<step>A</step>					<octave>4</octave>				</pitch>				<duration>6720</duration>				<voice>1</voice>				<type>quarter</type>				<stem default-y="7.75">up</stem>			</note>		</measure>		<!--==========================[1,16]=============================-->		<measure number="16" width="176">			<note>				<pitch>					<step>F</step>					<octave>5</octave>				</pitch>				<duration>3360</duration>				<voice>1</voice>				<type>eighth</type>				<stem default-y="-31.05">down</stem>				<beam number="1">begin</beam>			</note>			<note>				<pitch>					<step>F</step>					<octave>5</octave>				</pitch>				<duration>3360</duration>				<voice>1</voice>				<type>eighth</type>				<stem default-y="-31.05">down</stem>				<beam number="1">end</beam>			</note>			<note>				<pitch>					<step>E</step>					<octave>5</octave>				</pitch>				<duration>6720</duration>				<voice>1</voice>				<type>quarter</type>				<stem default-y="-41.05">down</stem>			</note>			<note>				<pitch>					<step>C</step>					<octave>5</octave>				</pitch>				<duration>6720</duration>				<voice>1</voice>				<type>quarter</type>				<stem default-y="-48.55">down</stem>			</note>		</measure>		<!--==========================[1,17]=============================-->		<measure number="17" width="175">			<note>				<pitch>					<step>D</step>					<octave>5</octave>				</pitch>				<duration>3360</duration>				<voice>1</voice>				<type>eighth</type>				<stem default-y="-41.05">down</stem>				<beam number="1">begin</beam>			</note>			<note>				<pitch>					<step>D</step>					<octave>5</octave>				</pitch>				<duration>3360</duration>				<voice>1</voice>				<type>eighth</type>				<stem default-y="-41.05">down</stem>				<beam number="1">end</beam>			</note>			<note>				<pitch>					<step>C</step>					<octave>5</octave>				</pitch>				<duration>13440</duration>				<voice>1</voice>				<type>half</type>				<stem default-y="-48.55">down</stem>			</note>			<barline location="right">				<repeat direction="backward" times="2"/>			</barline>		</measure>	</part></score-partwise>