<?xml version="1.0" encoding="UTF-8" standalone="no"?><!DOCTYPE score-partwise PUBLIC "-//Recordare//DTD MusicXML 2.0 Partwise//EN" "http://www.musicxml.org/dtds/partwise.dtd"><score-partwise version="2.0">	<work>		<work-title>Cannon in DCannon</work-title>	</work>	<identification>		<encoding>			<software>PDFtoMusic Pro v1.6.5 Build 1B9E3 (c) Myriad - http://www.myriad-online.com</software>			<?PDFtoMusic Document type 0100- 00000000?>			<supports attribute="new-system" element="print" type="yes" value="yes"/>			<supports attribute="new-page" element="print" type="yes" value="yes"/>		</encoding>	</identification>	<defaults>		<scaling>			<millimeters>7.055561</millimeters>			<tenths>40</tenths>		</scaling>		<page-layout>			<page-height>1683.999</page-height>			<page-width>1189.999</page-width>			<page-margins type="both">				<left-margin>56.693</left-margin>				<right-margin>56.693</right-margin>				<top-margin>56.693</top-margin>				 <bottom-margin>56.693</bottom-margin>			</page-margins>		</page-layout>		<appearance>			<line-width type="stem">1.3000</line-width>			<line-width type="beam">4.8000</line-width>			<line-width type="staff">0.8000</line-width>			<line-width type="light barline">1.4269</line-width>			<line-width type="heavy barline">5.0000</line-width>			<line-width type="leger">1.2000</line-width>		</appearance>	</defaults>	<credit page="1">		<credit-words  default-x="593.937" default-y="1585.306" justify="center" valign="baseline" font-family="Times New Roman" font-size="24" font-weight="normal" font-style="normal">Cannon in D</credit-words>		<credit-words   justify="center" valign="baseline" font-family="Times New Roman" font-size="14" font-weight="normal" font-style="normal">Cannon</credit-words>	</credit>	<part-list>		<score-part id="P1">			<part-name font-family="Times New Roman" font-size="12" font-weight="normal" font-style="normal">Piano</part-name>			<score-instrument id="P1-I1">				<instrument-name>Instrument 1</instrument-name>			</score-instrument>			<midi-instrument id="P1-I1">				<midi-channel>1</midi-channel>				<midi-bank>1</midi-bank>				<midi-program>1</midi-program>				<volume>50</volume>				<pan>0</pan>				<elevation>0</elevation>				<?Myriad				<iddigit>0</iddigit>				?>			</midi-instrument>		</score-part>	</part-list>	<part id="P1">		<!--==========================[1,1]=============================-->		<measure number="1" width="308">			<print new-page="yes">				<system-layout>					<system-margins>						<left-margin>87.125</left-margin>						<right-margin>0.000</right-margin>					</system-margins>					<top-system-distance>179.600</top-system-distance>				</system-layout>				<staff-layout number="2">					<staff-distance>65.000</staff-distance>				</staff-layout>			</print>			<attributes>				<divisions>6720</divisions>				<key>					<fifths>2</fifths>					<mode>major</mode>				</key>				<time>					<beats>4</beats>					<beat-type>4</beat-type>				</time>				<staves>2</staves>				<clef number="1">					<sign>G</sign>					<line>2</line>				</clef>				<clef number="2">					<sign>F</sign>					<line>4</line>				</clef>				<staff-details number="1" print-object="yes">					<staff-lines>5</staff-lines>					<staff-size>100.00</staff-size>				</staff-details>				<staff-details number="2" print-object="yes">					<staff-lines>5</staff-lines>					<staff-size>100.00</staff-size>				</staff-details>			</attributes>			<direction placement="above">				<direction-type>					<words font-family="FreeSerifBold" font-size="12" font-weight="bold" font-style="normal" relative-x="75.84" default-y="39.60"></words>				</direction-type>				<direction-type>					<metronome font-family="FreeSerifBold" font-size="12" font-weight="bold" font-style="normal" relative-x="121.08" default-y="39.60">						<beat-unit>quarter</beat-unit>						<per-minute>60</per-minute>					</metronome>				</direction-type>				<staff>1</staff>				<sound tempo="60.00"/>			</direction>			<note>				<pitch>					<step>F</step>					<alter>1</alter>					<octave>5</octave>				</pitch>				<duration>13440</duration>				<voice>1</voice>				<type>half</type>				<stem default-y="-36.05">down</stem>				<staff>1</staff>			</note>			<note>				<pitch>					<step>E</step>					<octave>5</octave>				</pitch>				<duration>13440</duration>				<voice>1</voice>				<type>half</type>				<stem default-y="-41.05">down</stem>				<staff>1</staff>			</note>			<backup>				<duration>26880</duration>			</backup>			<direction placement="above">				<direction-type>					<dynamics font-family="MScoreText" font-weight="normal" font-style="normal" relative-x="83.06" default-y="25.60">						<pp/>					</dynamics>				</direction-type>				<staff>2</staff>			</direction>			<note>				<pitch>					<step>D</step>					<octave>3</octave>				</pitch>				<duration>3360</duration>				<voice>4</voice>				<type>eighth</type>				<stem default-y="-51.05">down</stem>				<staff>2</staff>				<beam number="1">begin</beam>			</note>			<note>				<pitch>					<step>A</step>					<octave>3</octave>				</pitch>				<duration>3360</duration>				<voice>4</voice>				<type>eighth</type>				<stem default-y="-45.22">down</stem>				<staff>2</staff>				<beam number="1">continue</beam>			</note>			<note>				<pitch>					<step>D</step>					<octave>4</octave>				</pitch>				<duration>3360</duration>				<voice>4</voice>				<type>eighth</type>				<stem default-y="-39.38">down</stem>				<staff>2</staff>				<beam number="1">continue</beam>			</note>			<note>				<pitch>					<step>F</step>					<alter>1</alter>					<octave>4</octave>				</pitch>				<duration>3360</duration>				<voice>4</voice>				<type>eighth</type>				<stem default-y="-33.55">down</stem>				<staff>2</staff>				<beam number="1">end</beam>			</note>			<note>				<pitch>					<step>A</step>					<octave>2</octave>				</pitch>				<duration>3360</duration>				<voice>4</voice>				<type>eighth</type>				<stem default-y="-63.55">down</stem>				<staff>2</staff>				<beam number="1">begin</beam>			</note>			<note>				<pitch>					<step>E</step>					<octave>3</octave>				</pitch>				<duration>3360</duration>				<voice>4</voice>				<type>eighth</type>				<stem default-y="-58.55">down</stem>				<staff>2</staff>				<beam number="1">continue</beam>			</note>			<note>				<pitch>					<step>A</step>					<octave>3</octave>				</pitch>				<duration>3360</duration>				<voice>4</voice>				<type>eighth</type>				<stem default-y="-53.55">down</stem>				<staff>2</staff>				<beam number="1">continue</beam>			</note>			<note>				<pitch>					<step>C</step>					<alter>1</alter>					<octave>4</octave>				</pitch>				<duration>3360</duration>				<voice>4</voice>				<type>eighth</type>				<stem default-y="-48.55">down</stem>				<staff>2</staff>				<beam number="1">end</beam>			</note>		</measure>		<!--==========================[1,2]=============================-->		<measure number="2" width="226">			<note>				<pitch>					<step>D</step>					<octave>5</octave>				</pitch>				<duration>13440</duration>				<voice>1</voice>				<type>half</type>				<stem default-y="-44.80">down</stem>				<staff>1</staff>			</note>			<note>				<pitch>					<step>C</step>					<alter>1</alter>					<octave>5</octave>				</pitch>				<duration>13440</duration>				<voice>1</voice>				<type>half</type>				<stem default-y="-48.55">down</stem>				<staff>1</staff>			</note>			<backup>				<duration>26880</duration>			</backup>			<note>				<pitch>					<step>B</step>					<octave>2</octave>				</pitch>				<duration>3360</duration>				<voice>4</voice>				<type>eighth</type>				<stem default-y="-61.05">down</stem>				<staff>2</staff>				<beam number="1">begin</beam>			</note>			<note>				<pitch>					<step>F</step>					<alter>1</alter>					<octave>3</octave>				</pitch>				<duration>3360</duration>				<voice>4</voice>				<type>eighth</type>				<stem default-y="-55.22">down</stem>				<staff>2</staff>				<beam number="1">continue</beam>			</note>			<note>				<pitch>					<step>B</step>					<octave>3</octave>				</pitch>				<duration>3360</duration>				<voice>4</voice>				<type>eighth</type>				<stem default-y="-49.38">down</stem>				<staff>2</staff>				<beam number="1">continue</beam>			</note>			<note>				<pitch>					<step>D</step>					<octave>4</octave>				</pitch>				<duration>3360</duration>				<voice>4</voice>				<type>eighth</type>				<stem default-y="-43.55">down</stem>				<staff>2</staff>				<beam number="1">end</beam>			</note>			<note>				<pitch>					<step>F</step>					<alter>1</alter>					<octave>2</octave>				</pitch>				<duration>3360</duration>				<voice>4</voice>				<type>eighth</type>				<stem default-y="12.75">up</stem>				<staff>2</staff>				<beam number="1">begin</beam>			</note>			<note>				<pitch>					<step>C</step>					<alter>1</alter>					<octave>3</octave>				</pitch>				<duration>3360</duration>				<voice>4</voice>				<type>eighth</type>				<stem default-y="17.75">up</stem>				<staff>2</staff>				<beam number="1">continue</beam>			</note>			<note>				<pitch>					<step>F</step>					<alter>1</alter>					<octave>3</octave>				</pitch>				<duration>3360</duration>				<voice>4</voice>				<type>eighth</type>				<stem default-y="22.75">up</stem>				<staff>2</staff>				<beam number="1">continue</beam>			</note>			<note>				<pitch>					<step>A</step>					<octave>3</octave>				</pitch>				<duration>3360</duration>				<voice>4</voice>				<type>eighth</type>				<stem default-y="27.75">up</stem>				<staff>2</staff>				<beam number="1">end</beam>			</note>		</measure>		<!--==========================[1,3]=============================-->		<measure number="3" width="226">			<note>				<pitch>					<step>B</step>					<octave>4</octave>				</pitch>				<duration>13440</duration>				<voice>1</voice>				<type>half</type>				<stem default-y="-52.30">down</stem>				<staff>1</staff>			</note>			<note>				<pitch>					<step>A</step>					<octave>4</octave>				</pitch>				<duration>13440</duration>				<voice>1</voice>				<type>half</type>				<stem default-y="7.75">up</stem>				<staff>1</staff>			</note>			<backup>				<duration>26880</duration>			</backup>			<note>				<pitch>					<step>G</step>					<octave>2</octave>				</pitch>				<duration>3360</duration>				<voice>4</voice>				<type>eighth</type>				<stem default-y="-71.05">down</stem>				<staff>2</staff>				<beam number="1">begin</beam>			</note>			<note>				<pitch>					<step>D</step>					<octave>3</octave>				</pitch>				<duration>3360</duration>				<voice>4</voice>				<type>eighth</type>				<stem default-y="-65.22">down</stem>				<staff>2</staff>				<beam number="1">continue</beam>			</note>			<note>				<pitch>					<step>G</step>					<octave>3</octave>				</pitch>				<duration>3360</duration>				<voice>4</voice>				<type>eighth</type>				<stem default-y="-59.38">down</stem>				<staff>2</staff>				<beam number="1">continue</beam>			</note>			<note>				<pitch>					<step>B</step>					<octave>3</octave>				</pitch>				<duration>3360</duration>				<voice>4</voice>				<type>eighth</type>				<stem default-y="-53.55">down</stem>				<staff>2</staff>				<beam number="1">end</beam>			</note>			<note>				<pitch>					<step>D</step>					<octave>2</octave>				</pitch>				<duration>3360</duration>				<voice>4</voice>				<type>eighth</type>				<stem default-y="2.75">up</stem>				<staff>2</staff>				<beam number="1">begin</beam>			</note>			<note>				<pitch>					<step>A</step>					<octave>2</octave>				</pitch>				<duration>3360</duration>				<voice>4</voice>				<type>eighth</type>				<stem default-y="7.75">up</stem>				<staff>2</staff>				<beam number="1">continue</beam>			</note>			<note>				<pitch>					<step>D</step>					<octave>3</octave>				</pitch>				<duration>3360</duration>				<voice>4</voice>				<type>eighth</type>				<stem default-y="12.75">up</stem>				<staff>2</staff>				<beam number="1">continue</beam>			</note>			<note>				<pitch>					<step>F</step>					<alter>1</alter>					<octave>3</octave>				</pitch>				<duration>3360</duration>				<voice>4</voice>				<type>eighth</type>				<stem default-y="17.75">up</stem>				<staff>2</staff>				<beam number="1">end</beam>			</note>		</measure>		<!--==========================[1,4]=============================-->		<measure number="4" width="228">			<note>				<pitch>					<step>B</step>					<octave>4</octave>				</pitch>				<duration>13440</duration>				<voice>1</voice>				<type>half</type>				<stem default-y="-52.30">down</stem>				<staff>1</staff>			</note>			<note>				<pitch>					<step>C</step>					<alter>1</alter>					<octave>5</octave>				</pitch>				<duration>13440</duration>				<voice>1</voice>				<type>half</type>				<stem default-y="-48.55">down</stem>				<staff>1</staff>			</note>			<backup>				<duration>26880</duration>			</backup>			<note>				<pitch>					<step>G</step>					<octave>2</octave>				</pitch>				<duration>3360</duration>				<voice>4</voice>				<type>eighth</type>				<stem default-y="-71.05">down</stem>				<staff>2</staff>				<beam number="1">begin</beam>			</note>			<note>				<pitch>					<step>D</step>					<octave>3</octave>				</pitch>				<duration>3360</duration>				<voice>4</voice>				<type>eighth</type>				<stem default-y="-65.22">down</stem>				<staff>2</staff>				<beam number="1">continue</beam>			</note>			<note>				<pitch>					<step>G</step>					<octave>3</octave>				</pitch>				<duration>3360</duration>				<voice>4</voice>				<type>eighth</type>				<stem default-y="-59.38">down</stem>				<staff>2</staff>				<beam number="1">continue</beam>			</note>			<note>				<pitch>					<step>B</step>					<octave>3</octave>				</pitch>				<duration>3360</duration>				<voice>4</voice>				<type>eighth</type>				<stem default-y="-53.55">down</stem>				<staff>2</staff>				<beam number="1">end</beam>			</note>			<note>				<pitch>					<step>A</step>					<octave>2</octave>				</pitch>				<duration>3360</duration>				<voice>4</voice>				<type>eighth</type>				<stem default-y="-63.55">down</stem>				<staff>2</staff>				<beam number="1">begin</beam>			</note>			<note>				<pitch>					<step>E</step>					<octave>3</octave>				</pitch>				<duration>3360</duration>				<voice>4</voice>				<type>eighth</type>				<stem default-y="-58.55">down</stem>				<staff>2</staff>				<beam number="1">continue</beam>			</note>			<note>				<pitch>					<step>A</step>					<octave>3</octave>				</pitch>				<duration>3360</duration>				<voice>4</voice>				<type>eighth</type>				<stem default-y="-53.55">down</stem>				<staff>2</staff>				<beam number="1">continue</beam>			</note>			<note>				<pitch>					<step>C</step>					<alter>1</alter>					<octave>4</octave>				</pitch>				<duration>3360</duration>				<voice>4</voice>				<type>eighth</type>				<stem default-y="-48.55">down</stem>				<staff>2</staff>				<beam number="1">end</beam>			</note>		</measure>		<!--==========================[1,5]=============================-->		<measure number="5" width="295">			<print new-system="yes">				<system-layout>					<system-margins>						<left-margin>75.844</left-margin>						<right-margin>0.000</right-margin>					</system-margins>					<system-distance>134.675</system-distance>				</system-layout>				<staff-layout number="2">					<staff-distance>65.000</staff-distance>				</staff-layout>			</print>			<attributes>				<staff-details number="1" print-object="yes">				</staff-details>				<staff-details number="2" print-object="yes">				</staff-details>			</attributes>			<note>				<pitch>					<step>F</step>					<alter>1</alter>					<octave>5</octave>				</pitch>				<duration>13440</duration>				<voice>1</voice>				<type>half</type>				<stem default-y="-43.30">down</stem>				<staff>1</staff>			</note>			<note>				<chord/>				<pitch>					<step>D</step>					<octave>5</octave>				</pitch>				<duration>13440</duration>				<voice>1</voice>				<type>half</type>				<stem default-y="-43.30">down</stem>				<staff>1</staff>			</note>			<note>				<pitch>					<step>C</step>					<alter>1</alter>					<octave>5</octave>				</pitch>				<duration>13440</duration>				<voice>1</voice>				<type>half</type>				<stem default-y="-48.55">down</stem>				<staff>1</staff>			</note>			<note>				<chord/>				<pitch>					<step>E</step>					<octave>5</octave>				</pitch>				<duration>13440</duration>				<voice>1</voice>				<type>half</type>				<stem default-y="-48.55">down</stem>				<staff>1</staff>			</note>			<backup>				<duration>26880</duration>			</backup>			<direction placement="above">				<direction-type>					<dynamics font-family="MScoreText" font-weight="normal" font-style="normal" relative-x="69.03" default-y="25.60">						<p/>					</dynamics>				</direction-type>				<staff>2</staff>			</direction>			<note>				<pitch>					<step>D</step>					<octave>3</octave>				</pitch>				<duration>3360</duration>				<voice>4</voice>				<type>eighth</type>				<stem default-y="-51.05">down</stem>				<staff>2</staff>				<beam number="1">begin</beam>			</note>			<note>				<pitch>					<step>A</step>					<octave>3</octave>				</pitch>				<duration>3360</duration>				<voice>4</voice>				<type>eighth</type>				<stem default-y="-45.22">down</stem>				<staff>2</staff>				<beam number="1">continue</beam>			</note>			<note>				<pitch>					<step>D</step>					<octave>4</octave>				</pitch>				<duration>3360</duration>				<voice>4</voice>				<type>eighth</type>				<stem default-y="-39.38">down</stem>				<staff>2</staff>				<beam number="1">continue</beam>			</note>			<note>				<pitch>					<step>F</step>					<alter>1</alter>					<octave>4</octave>				</pitch>				<duration>3360</duration>				<voice>4</voice>				<type>eighth</type>				<stem default-y="-33.55">down</stem>				<staff>2</staff>				<beam number="1">end</beam>			</note>			<note>				<pitch>					<step>A</step>					<octave>2</octave>				</pitch>				<duration>3360</duration>				<voice>4</voice>				<type>eighth</type>				<stem default-y="-63.55">down</stem>				<staff>2</staff>				<beam number="1">begin</beam>			</note>			<note>				<pitch>					<step>E</step>					<octave>3</octave>				</pitch>				<duration>3360</duration>				<voice>4</voice>				<type>eighth</type>				<stem default-y="-58.55">down</stem>				<staff>2</staff>				<beam number="1">continue</beam>			</note>			<note>				<pitch>					<step>A</step>					<octave>3</octave>				</pitch>				<duration>3360</duration>				<voice>4</voice>				<type>eighth</type>				<stem default-y="-53.55">down</stem>				<staff>2</staff>				<beam number="1">continue</beam>			</note>			<note>				<pitch>					<step>C</step>					<alter>1</alter>					<octave>4</octave>				</pitch>				<duration>3360</duration>				<voice>4</voice>				<type>eighth</type>				<stem default-y="-48.55">down</stem>				<staff>2</staff>				<beam number="1">end</beam>			</note>		</measure>		<!--==========================[1,6]=============================-->		<measure number="6" width="234">			<note>				<pitch>					<step>B</step>					<octave>4</octave>				</pitch>				<duration>13440</duration>				<voice>1</voice>				<type>half</type>				<stem default-y="-52.30">down</stem>				<staff>1</staff>			</note>			<note>				<chord/>				<pitch>					<step>D</step>					<octave>5</octave>				</pitch>				<duration>13440</duration>				<voice>1</voice>				<type>half</type>				<stem default-y="-52.30">down</stem>				<staff>1</staff>			</note>			<note>				<pitch>					<step>A</step>					<octave>4</octave>				</pitch>				<duration>13440</duration>				<voice>1</voice>				<type>half</type>				<stem default-y="-56.05">down</stem>				<staff>1</staff>			</note>			<note>				<chord/>				<pitch>					<step>C</step>					<alter>1</alter>					<octave>5</octave>				</pitch>				<duration>13440</duration>				<voice>1</voice>				<type>half</type>				<stem default-y="-56.05">down</stem>				<staff>1</staff>			</note>			<backup>				<duration>26880</duration>			</backup>			<note>				<pitch>					<step>B</step>					<octave>2</octave>				</pitch>				<duration>3360</duration>				<voice>4</voice>				<type>eighth</type>				<stem default-y="-61.05">down</stem>				<staff>2</staff>				<beam number="1">begin</beam>			</note>			<note>				<pitch>					<step>F</step>					<alter>1</alter>					<octave>3</octave>				</pitch>				<duration>3360</duration>				<voice>4</voice>				<type>eighth</type>				<stem default-y="-55.22">down</stem>				<staff>2</staff>				<beam number="1">continue</beam>			</note>			<note>				<pitch>					<step>B</step>					<octave>3</octave>				</pitch>				<duration>3360</duration>				<voice>4</voice>				<type>eighth</type>				<stem default-y="-49.38">down</stem>				<staff>2</staff>				<beam number="1">continue</beam>			</note>			<note>				<pitch>					<step>D</step>					<octave>4</octave>				</pitch>				<duration>3360</duration>				<voice>4</voice>				<type>eighth</type>				<stem default-y="-43.55">down</stem>				<staff>2</staff>				<beam number="1">end</beam>			</note>			<note>				<pitch>					<step>F</step>					<alter>1</alter>					<octave>2</octave>				</pitch>				<duration>3360</duration>				<voice>4</voice>				<type>eighth</type>				<stem default-y="12.75">up</stem>				<staff>2</staff>				<beam number="1">begin</beam>			</note>			<note>				<pitch>					<step>C</step>					<alter>1</alter>					<octave>3</octave>				</pitch>				<duration>3360</duration>				<voice>4</voice>				<type>eighth</type>				<stem default-y="17.75">up</stem>				<staff>2</staff>				<beam number="1">continue</beam>			</note>			<note>				<pitch>					<step>F</step>					<alter>1</alter>					<octave>3</octave>				</pitch>				<duration>3360</duration>				<voice>4</voice>				<type>eighth</type>				<stem default-y="22.75">up</stem>				<staff>2</staff>				<beam number="1">continue</beam>			</note>			<note>				<pitch>					<step>A</step>					<octave>3</octave>				</pitch>				<duration>3360</duration>				<voice>4</voice>				<type>eighth</type>				<stem default-y="27.75">up</stem>				<staff>2</staff>				<beam number="1">end</beam>			</note>		</measure>		<!--==========================[1,7]=============================-->		<measure number="7" width="234">			<note>				<pitch>					<step>G</step>					<octave>4</octave>				</pitch>				<duration>13440</duration>				<voice>1</voice>				<type>half</type>				<stem default-y="11.50">up</stem>				<staff>1</staff>			</note>			<note>				<chord/>				<pitch>					<step>B</step>					<octave>4</octave>				</pitch>				<duration>13440</duration>				<voice>1</voice>				<type>half</type>				<stem default-y="11.50">up</stem>				<staff>1</staff>			</note>			<note>				<pitch>					<step>F</step>					<alter>1</alter>					<octave>4</octave>				</pitch>				<duration>13440</duration>				<voice>1</voice>				<type>half</type>				<stem default-y="7.75">up</stem>				<staff>1</staff>			</note>			<note>				<chord/>				<pitch>					<step>A</step>					<octave>4</octave>				</pitch>				<duration>13440</duration>				<voice>1</voice>				<type>half</type>				<stem default-y="7.75">up</stem>				<staff>1</staff>			</note>			<backup>				<duration>26880</duration>			</backup>			<note>				<pitch>					<step>G</step>					<octave>2</octave>				</pitch>				<duration>3360</duration>				<voice>4</voice>				<type>eighth</type>				<stem default-y="-71.05">down</stem>				<staff>2</staff>				<beam number="1">begin</beam>			</note>			<note>				<pitch>					<step>D</step>					<octave>3</octave>				</pitch>				<duration>3360</duration>				<voice>4</voice>				<type>eighth</type>				<stem default-y="-65.22">down</stem>				<staff>2</staff>				<beam number="1">continue</beam>			</note>			<note>				<pitch>					<step>G</step>					<octave>3</octave>				</pitch>				<duration>3360</duration>				<voice>4</voice>				<type>eighth</type>				<stem default-y="-59.38">down</stem>				<staff>2</staff>				<beam number="1">continue</beam>			</note>			<note>				<pitch>					<step>B</step>					<octave>3</octave>				</pitch>				<duration>3360</duration>				<voice>4</voice>				<type>eighth</type>				<stem default-y="-53.55">down</stem>				<staff>2</staff>				<beam number="1">end</beam>			</note>			<note>				<pitch>					<step>D</step>					<octave>2</octave>				</pitch>				<duration>3360</duration>				<voice>4</voice>				<type>eighth</type>				<stem default-y="2.75">up</stem>				<staff>2</staff>				<beam number="1">begin</beam>			</note>			<note>				<pitch>					<step>A</step>					<octave>2</octave>				</pitch>				<duration>3360</duration>				<voice>4</voice>				<type>eighth</type>				<stem default-y="7.75">up</stem>				<staff>2</staff>				<beam number="1">continue</beam>			</note>			<note>				<pitch>					<step>D</step>					<octave>3</octave>				</pitch>				<duration>3360</duration>				<voice>4</voice>				<type>eighth</type>				<stem default-y="12.75">up</stem>				<staff>2</staff>				<beam number="1">continue</beam>			</note>			<note>				<pitch>					<step>F</step>					<alter>1</alter>					<octave>3</octave>				</pitch>				<duration>3360</duration>				<voice>4</voice>				<type>eighth</type>				<stem default-y="17.75">up</stem>				<staff>2</staff>				<beam number="1">end</beam>			</note>		</measure>		<!--==========================[1,8]=============================-->		<measure number="8" width="236">			<note>				<pitch>					<step>G</step>					<octave>4</octave>				</pitch>				<duration>13440</duration>				<voice>1</voice>				<type>half</type>				<stem default-y="11.50">up</stem>				<staff>1</staff>			</note>			<note>				<chord/>				<pitch>					<step>B</step>					<octave>4</octave>				</pitch>				<duration>13440</duration>				<voice>1</voice>				<type>half</type>				<stem default-y="11.50">up</stem>				<staff>1</staff>			</note>			<note>				<pitch>					<step>A</step>					<octave>4</octave>				</pitch>				<duration>13440</duration>				<voice>1</voice>				<type>half</type>				<stem default-y="-56.05">down</stem>				<staff>1</staff>			</note>			<note>				<chord/>				<pitch>					<step>C</step>					<alter>1</alter>					<octave>5</octave>				</pitch>				<duration>13440</duration>				<voice>1</voice>				<type>half</type>				<stem default-y="-56.05">down</stem>				<staff>1</staff>			</note>			<backup>				<duration>26880</duration>			</backup>			<note>				<pitch>					<step>G</step>					<octave>2</octave>				</pitch>				<duration>3360</duration>				<voice>4</voice>				<type>eighth</type>				<stem default-y="-71.05">down</stem>				<staff>2</staff>				<beam number="1">begin</beam>			</note>			<note>				<pitch>					<step>D</step>					<octave>3</octave>				</pitch>				<duration>3360</duration>				<voice>4</voice>				<type>eighth</type>				<stem default-y="-65.22">down</stem>				<staff>2</staff>				<beam number="1">continue</beam>			</note>			<note>				<pitch>					<step>G</step>					<octave>3</octave>				</pitch>				<duration>3360</duration>				<voice>4</voice>				<type>eighth</type>				<stem default-y="-59.38">down</stem>				<staff>2</staff>				<beam number="1">continue</beam>			</note>			<note>				<pitch>					<step>B</step>					<octave>3</octave>				</pitch>				<duration>3360</duration>				<voice>4</voice>				<type>eighth</type>				<stem default-y="-53.55">down</stem>				<staff>2</staff>				<beam number="1">end</beam>			</note>			<note>				<pitch>					<step>A</step>					<octave>2</octave>				</pitch>				<duration>3360</duration>				<voice>4</voice>				<type>eighth</type>				<stem default-y="-63.55">down</stem>				<staff>2</staff>				<beam number="1">begin</beam>			</note>			<note>				<pitch>					<step>E</step>					<octave>3</octave>				</pitch>				<duration>3360</duration>				<voice>4</voice>				<type>eighth</type>				<stem default-y="-58.55">down</stem>				<staff>2</staff>				<beam number="1">continue</beam>			</note>			<note>				<pitch>					<step>A</step>					<octave>3</octave>				</pitch>				<duration>3360</duration>				<voice>4</voice>				<type>eighth</type>				<stem default-y="-53.55">down</stem>				<staff>2</staff>				<beam number="1">continue</beam>			</note>			<note>				<pitch>					<step>C</step>					<alter>1</alter>					<octave>4</octave>				</pitch>				<duration>3360</duration>				<voice>4</voice>				<type>eighth</type>				<stem default-y="-48.55">down</stem>				<staff>2</staff>				<beam number="1">end</beam>			</note>		</measure>		<!--==========================[1,9]=============================-->		<measure number="9" width="287">			<print new-system="yes">				<system-layout>					<system-margins>						<left-margin>75.844</left-margin>						<right-margin>0.000</right-margin>					</system-margins>					<system-distance>134.675</system-distance>				</system-layout>				<staff-layout number="2">					<staff-distance>65.000</staff-distance>				</staff-layout>			</print>			<attributes>				<staff-details number="1" print-object="yes">				</staff-details>				<staff-details number="2" print-object="yes">				</staff-details>			</attributes>			<note>				<pitch>					<step>F</step>					<alter>1</alter>					<octave>5</octave>				</pitch>				<duration>3360</duration>				<voice>1</voice>				<type>eighth</type>				<stem default-y="-48.55">down</stem>				<staff>1</staff>				<beam number="1">begin</beam>			</note>			<note>				<chord/>				<pitch>					<step>D</step>					<octave>5</octave>				</pitch>				<duration>3360</duration>				<voice>1</voice>				<type>eighth</type>				<stem default-y="-48.55">down</stem>				<staff>1</staff>			</note>			<note>				<pitch>					<step>C</step>					<alter>1</alter>					<octave>5</octave>				</pitch>				<duration>3360</duration>				<voice>1</voice>				<type>eighth</type>				<stem default-y="-53.55">down</stem>				<staff>1</staff>				<beam number="1">continue</beam>			</note>			<note>				<pitch>					<step>D</step>					<octave>5</octave>				</pitch>				<duration>3360</duration>				<voice>1</voice>				<type>eighth</type>				<stem default-y="-58.55">down</stem>				<staff>1</staff>				<beam number="1">continue</beam>			</note>			<note>				<pitch>					<step>F</step>					<alter>1</alter>					<octave>4</octave>				</pitch>				<duration>3360</duration>				<voice>1</voice>				<type>eighth</type>				<stem default-y="-63.55">down</stem>				<staff>1</staff>				<beam number="1">end</beam>			</note>			<note>				<pitch>					<step>E</step>					<octave>5</octave>				</pitch>				<duration>3360</duration>				<voice>1</voice>				<type>eighth</type>				<stem default-y="28.38">up</stem>				<staff>1</staff>				<beam number="1">begin</beam>			</note>			<note>				<chord/>				<pitch>					<step>E</step>					<octave>4</octave>				</pitch>				<duration>3360</duration>				<voice>1</voice>				<type>eighth</type>				<stem default-y="22.75">up</stem>				<staff>1</staff>			</note>			<note>				<pitch>					<step>A</step>					<octave>4</octave>				</pitch>				<duration>3360</duration>				<voice>1</voice>				<type>eighth</type>				<stem default-y="18.58">up</stem>				<staff>1</staff>				<beam number="1">continue</beam>			</note>			<note>				<pitch>					<step>G</step>					<octave>4</octave>				</pitch>				<duration>3360</duration>				<voice>1</voice>				<type>eighth</type>				<stem default-y="14.42">up</stem>				<staff>1</staff>				<beam number="1">continue</beam>			</note>			<note>				<pitch>					<step>A</step>					<octave>4</octave>				</pitch>				<duration>3360</duration>				<voice>1</voice>				<type>eighth</type>				<stem default-y="10.25">up</stem>				<staff>1</staff>				<beam number="1">end</beam>			</note>			<backup>				<duration>26880</duration>			</backup>			<note>				<pitch>					<step>D</step>					<octave>3</octave>				</pitch>				<duration>3360</duration>				<voice>4</voice>				<type>eighth</type>				<stem default-y="-51.05">down</stem>				<staff>2</staff>				<beam number="1">begin</beam>			</note>			<note>				<pitch>					<step>A</step>					<octave>3</octave>				</pitch>				<duration>3360</duration>				<voice>4</voice>				<type>eighth</type>				<stem default-y="-46.88">down</stem>				<staff>2</staff>				<beam number="1">continue</beam>			</note>			<note>				<pitch>					<step>D</step>					<octave>4</octave>				</pitch>				<duration>3360</duration>				<voice>4</voice>				<type>eighth</type>				<stem default-y="-42.72">down</stem>				<staff>2</staff>				<beam number="1">continue</beam>			</note>			<note>				<pitch>					<step>A</step>					<octave>3</octave>				</pitch>				<duration>3360</duration>				<voice>4</voice>				<type>eighth</type>				<stem default-y="-38.55">down</stem>				<staff>2</staff>				<beam number="1">end</beam>			</note>			<note>				<pitch>					<step>A</step>					<octave>2</octave>				</pitch>				<duration>3360</duration>				<voice>4</voice>				<type>eighth</type>				<stem default-y="-63.55">down</stem>				<staff>2</staff>				<beam number="1">begin</beam>			</note>			<note>				<pitch>					<step>E</step>					<octave>3</octave>				</pitch>				<duration>3360</duration>				<voice>4</voice>				<type>eighth</type>				<stem default-y="-59.38">down</stem>				<staff>2</staff>				<beam number="1">continue</beam>			</note>			<note>				<pitch>					<step>A</step>					<octave>3</octave>				</pitch>				<duration>3360</duration>				<voice>4</voice>				<type>eighth</type>				<stem default-y="-55.22">down</stem>				<staff>2</staff>				<beam number="1">continue</beam>			</note>			<note>				<pitch>					<step>E</step>					<octave>3</octave>				</pitch>				<duration>3360</duration>				<voice>4</voice>				<type>eighth</type>				<stem default-y="-51.05">down</stem>				<staff>2</staff>				<beam number="1">end</beam>			</note>		</measure>		<!--==========================[1,10]=============================-->		<measure number="10" width="242">			<note>				<pitch>					<step>D</step>					<octave>5</octave>				</pitch>				<duration>3360</duration>				<voice>1</voice>				<type>eighth</type>				<stem default-y="22.75">up</stem>				<staff>1</staff>				<beam number="1">begin</beam>			</note>			<note>				<chord/>				<pitch>					<step>F</step>					<alter>1</alter>					<octave>4</octave>				</pitch>				<duration>3360</duration>				<voice>1</voice>				<type>eighth</type>				<stem default-y="22.75">up</stem>				<staff>1</staff>			</note>			<note>				<pitch>					<step>D</step>					<octave>5</octave>				</pitch>				<duration>3360</duration>				<voice>1</voice>				<type>eighth</type>				<stem default-y="21.08">up</stem>				<staff>1</staff>				<beam number="1">continue</beam>			</note>			<note>				<pitch>					<step>C</step>					<alter>1</alter>					<octave>5</octave>				</pitch>				<duration>3360</duration>				<voice>1</voice>				<type>eighth</type>				<stem default-y="19.42">up</stem>				<staff>1</staff>				<beam number="1">continue</beam>			</note>			<note>				<pitch>					<step>B</step>					<octave>4</octave>				</pitch>				<duration>3360</duration>				<voice>1</voice>				<type>eighth</type>				<stem default-y="17.75">up</stem>				<staff>1</staff>				<beam number="1">end</beam>			</note>			<note>				<pitch>					<step>A</step>					<octave>4</octave>				</pitch>				<duration>3360</duration>				<voice>1</voice>				<type>eighth</type>				<stem default-y="-53.55">down</stem>				<staff>1</staff>				<beam number="1">begin</beam>			</note>			<note>				<chord/>				<pitch>					<step>C</step>					<alter>1</alter>					<octave>5</octave>				</pitch>				<duration>3360</duration>				<voice>1</voice>				<type>eighth</type>				<stem default-y="-53.55">down</stem>				<staff>1</staff>			</note>			<note>				<pitch>					<step>F</step>					<alter>1</alter>					<octave>5</octave>				</pitch>				<duration>3360</duration>				<voice>1</voice>				<type>eighth</type>				<stem default-y="-48.55">down</stem>				<staff>1</staff>				<beam number="1">continue</beam>			</note>			<note>				<pitch>					<step>C</step>					<alter>1</alter>					<octave>5</octave>				</pitch>				<duration>3360</duration>				<voice>1</voice>				<type>eighth</type>				<stem default-y="-43.55">down</stem>				<staff>1</staff>				<beam number="1">continue</beam>			</note>			<note>				<chord/>				<pitch>					<step>A</step>					<octave>5</octave>				</pitch>				<duration>3360</duration>				<voice>1</voice>				<type>eighth</type>				<stem default-y="-43.55">down</stem>				<staff>1</staff>			</note>			<note>				<pitch>					<step>B</step>					<octave>5</octave>				</pitch>				<duration>3360</duration>				<voice>1</voice>				<type>eighth</type>				<stem default-y="-38.55">down</stem>				<staff>1</staff>				<beam number="1">end</beam>			</note>			<backup>				<duration>26880</duration>			</backup>			<note>				<pitch>					<step>B</step>					<octave>2</octave>				</pitch>				<duration>3360</duration>				<voice>4</voice>				<type>eighth</type>				<stem default-y="-58.55">down</stem>				<staff>2</staff>				<beam number="1">begin</beam>			</note>			<note>				<pitch>					<step>F</step>					<alter>1</alter>					<octave>3</octave>				</pitch>				<duration>3360</duration>				<voice>4</voice>				<type>eighth</type>				<stem default-y="-53.55">down</stem>				<staff>2</staff>				<beam number="1">continue</beam>			</note>			<note>				<pitch>					<step>B</step>					<octave>3</octave>				</pitch>				<duration>3360</duration>				<voice>4</voice>				<type>eighth</type>				<stem default-y="-48.55">down</stem>				<staff>2</staff>				<beam number="1">continue</beam>			</note>			<note>				<pitch>					<step>F</step>					<alter>1</alter>					<octave>3</octave>				</pitch>				<duration>3360</duration>				<voice>4</voice>				<type>eighth</type>				<stem default-y="-43.55">down</stem>				<staff>2</staff>				<beam number="1">end</beam>			</note>			<note>				<pitch>					<step>F</step>					<alter>1</alter>					<octave>2</octave>				</pitch>				<duration>3360</duration>				<voice>4</voice>				<type>eighth</type>				<stem default-y="19.50">up</stem>				<staff>2</staff>				<beam number="1">begin</beam>			</note>			<note>				<pitch>					<step>C</step>					<alter>1</alter>					<octave>3</octave>				</pitch>				<duration>3360</duration>				<voice>4</voice>				<type>eighth</type>				<stem default-y="19.50">up</stem>				<staff>2</staff>				<beam number="1">continue</beam>			</note>			<note>				<pitch>					<step>F</step>					<alter>1</alter>					<octave>3</octave>				</pitch>				<duration>3360</duration>				<voice>4</voice>				<type>eighth</type>				<stem default-y="19.50">up</stem>				<staff>2</staff>				<beam number="1">continue</beam>			</note>			<note>				<pitch>					<step>C</step>					<alter>1</alter>					<octave>3</octave>				</pitch>				<duration>3360</duration>				<voice>4</voice>				<type>eighth</type>				<stem default-y="19.50">up</stem>				<staff>2</staff>				<beam number="1">end</beam>			</note>		</measure>		<!--==========================[1,11]=============================-->		<measure number="11" width="234">			<note>				<pitch>					<step>B</step>					<octave>4</octave>				</pitch>				<duration>3360</duration>				<voice>1</voice>				<type>eighth</type>				<stem default-y="-48.55">down</stem>				<staff>1</staff>				<beam number="1">begin</beam>			</note>			<note>				<chord/>				<pitch>					<step>G</step>					<octave>5</octave>				</pitch>				<duration>3360</duration>				<voice>1</voice>				<type>eighth</type>				<stem default-y="-48.55">down</stem>				<staff>1</staff>			</note>			<note>				<pitch>					<step>F</step>					<alter>1</alter>					<octave>5</octave>				</pitch>				<duration>3360</duration>				<voice>1</voice>				<type>eighth</type>				<stem default-y="-43.55">down</stem>				<staff>1</staff>				<beam number="1">continue</beam>			</note>			<note>				<pitch>					<step>E</step>					<octave>5</octave>				</pitch>				<duration>3360</duration>				<voice>1</voice>				<type>eighth</type>				<stem default-y="-38.55">down</stem>				<staff>1</staff>				<beam number="1">continue</beam>			</note>			<note>				<pitch>					<step>G</step>					<octave>5</octave>				</pitch>				<duration>3360</duration>				<voice>1</voice>				<type>eighth</type>				<stem default-y="-33.55">down</stem>				<staff>1</staff>				<beam number="1">end</beam>			</note>			<note>				<pitch>					<step>F</step>					<alter>1</alter>					<octave>5</octave>				</pitch>				<duration>3360</duration>				<voice>1</voice>				<type>eighth</type>				<stem default-y="-53.55">down</stem>				<staff>1</staff>				<beam number="1">begin</beam>			</note>			<note>				<chord/>				<pitch>					<step>A</step>					<octave>4</octave>				</pitch>				<duration>3360</duration>				<voice>1</voice>				<type>eighth</type>				<stem default-y="-53.55">down</stem>				<staff>1</staff>			</note>			<note>				<pitch>					<step>E</step>					<octave>5</octave>				</pitch>				<duration>3360</duration>				<voice>1</voice>				<type>eighth</type>				<stem default-y="-51.88">down</stem>				<staff>1</staff>				<beam number="1">continue</beam>			</note>			<note>				<pitch>					<step>D</step>					<octave>5</octave>				</pitch>				<duration>3360</duration>				<voice>1</voice>				<type>eighth</type>				<stem default-y="-50.22">down</stem>				<staff>1</staff>				<beam number="1">continue</beam>			</note>			<note>				<pitch>					<step>C</step>					<alter>1</alter>					<octave>5</octave>				</pitch>				<duration>3360</duration>				<voice>1</voice>				<type>eighth</type>				<stem default-y="-48.55">down</stem>				<staff>1</staff>				<beam number="1">end</beam>			</note>			<backup>				<duration>26880</duration>			</backup>			<note>				<pitch>					<step>G</step>					<octave>2</octave>				</pitch>				<duration>3360</duration>				<voice>4</voice>				<type>eighth</type>				<stem default-y="22.00">up</stem>				<staff>2</staff>				<beam number="1">begin</beam>			</note>			<note>				<pitch>					<step>D</step>					<octave>3</octave>				</pitch>				<duration>3360</duration>				<voice>4</voice>				<type>eighth</type>				<stem default-y="22.00">up</stem>				<staff>2</staff>				<beam number="1">continue</beam>			</note>			<note>				<pitch>					<step>G</step>					<octave>3</octave>				</pitch>				<duration>3360</duration>				<voice>4</voice>				<type>eighth</type>				<stem default-y="22.00">up</stem>				<staff>2</staff>				<beam number="1">continue</beam>			</note>			<note>				<pitch>					<step>D</step>					<octave>3</octave>				</pitch>				<duration>3360</duration>				<voice>4</voice>				<type>eighth</type>				<stem default-y="22.00">up</stem>				<staff>2</staff>				<beam number="1">end</beam>			</note>			<note>				<pitch>					<step>D</step>					<octave>2</octave>				</pitch>				<duration>3360</duration>				<voice>4</voice>				<type>eighth</type>				<stem default-y="2.75">up</stem>				<staff>2</staff>				<beam number="1">begin</beam>			</note>			<note>				<pitch>					<step>A</step>					<octave>2</octave>				</pitch>				<duration>3360</duration>				<voice>4</voice>				<type>eighth</type>				<stem default-y="7.75">up</stem>				<staff>2</staff>				<beam number="1">continue</beam>			</note>			<note>				<pitch>					<step>D</step>					<octave>3</octave>				</pitch>				<duration>3360</duration>				<voice>4</voice>				<type>eighth</type>				<stem default-y="12.75">up</stem>				<staff>2</staff>				<beam number="1">continue</beam>			</note>			<note>				<pitch>					<step>F</step>					<alter>1</alter>					<octave>3</octave>				</pitch>				<duration>3360</duration>				<voice>4</voice>				<type>eighth</type>				<stem default-y="17.75">up</stem>				<staff>2</staff>				<beam number="1">end</beam>			</note>		</measure>		<!--==========================[1,12]=============================-->		<measure number="12" width="236">			<note>				<pitch>					<step>G</step>					<octave>2</octave>				</pitch>				<duration>3360</duration>				<voice>4</voice>				<type>eighth</type>				<stem default-y="-71.05">down</stem>				<staff>2</staff>				<beam number="1">begin</beam>			</note>			<note>				<pitch>					<step>D</step>					<octave>3</octave>				</pitch>				<duration>3360</duration>				<voice>4</voice>				<type>eighth</type>				<stem default-y="-65.22">down</stem>				<staff>2</staff>				<beam number="1">continue</beam>			</note>			<note>				<pitch>					<step>G</step>					<octave>3</octave>				</pitch>				<duration>3360</duration>				<voice>4</voice>				<type>eighth</type>				<stem default-y="-59.38">down</stem>				<staff>2</staff>				<beam number="1">continue</beam>			</note>			<note>				<pitch>					<step>B</step>					<octave>3</octave>				</pitch>				<duration>3360</duration>				<voice>4</voice>				<type>eighth</type>				<stem default-y="-53.55">down</stem>				<staff>2</staff>				<beam number="1">end</beam>			</note>			<note>				<pitch>					<step>A</step>					<octave>2</octave>				</pitch>				<duration>3360</duration>				<voice>4</voice>				<type>eighth</type>				<stem default-y="-63.55">down</stem>				<staff>2</staff>				<beam number="1">begin</beam>			</note>			<note>				<pitch>					<step>E</step>					<octave>3</octave>				</pitch>				<duration>3360</duration>				<voice>4</voice>				<type>eighth</type>				<stem default-y="-59.38">down</stem>				<staff>2</staff>				<beam number="1">continue</beam>			</note>			<note>				<pitch>					<step>A</step>					<octave>3</octave>				</pitch>				<duration>3360</duration>				<voice>4</voice>				<type>eighth</type>				<stem default-y="-55.22">down</stem>				<staff>2</staff>				<beam number="1">continue</beam>			</note>			<note>				<pitch>					<step>E</step>					<octave>3</octave>				</pitch>				<duration>3360</duration>				<voice>4</voice>				<type>eighth</type>				<stem default-y="-51.05">down</stem>				<staff>2</staff>				<beam number="1">end</beam>			</note>			<backup>				<duration>26880</duration>			</backup>			<note>				<pitch>					<step>G</step>					<octave>4</octave>				</pitch>				<duration>3360</duration>				<voice>1</voice>				<type>eighth</type>				<stem default-y="-58.55">down</stem>				<staff>1</staff>				<beam number="1">begin</beam>			</note>			<note>				<chord/>				<pitch>					<step>B</step>					<octave>4</octave>				</pitch>				<duration>3360</duration>				<voice>1</voice>				<type>eighth</type>				<stem default-y="-58.55">down</stem>				<staff>1</staff>			</note>			<note>				<pitch>					<step>A</step>					<octave>4</octave>				</pitch>				<duration>3360</duration>				<voice>1</voice>				<type>eighth</type>				<stem default-y="-53.55">down</stem>				<staff>1</staff>				<beam number="1">continue</beam>			</note>			<note>				<pitch>					<step>B</step>					<octave>4</octave>				</pitch>				<duration>3360</duration>				<voice>1</voice>				<type>eighth</type>				<stem default-y="-48.55">down</stem>				<staff>1</staff>				<beam number="1">continue</beam>			</note>			<note>				<pitch>					<step>D</step>					<octave>5</octave>				</pitch>				<duration>3360</duration>				<voice>1</voice>				<type>eighth</type>				<stem default-y="-43.55">down</stem>				<staff>1</staff>				<beam number="1">end</beam>			</note>			<note>				<pitch>					<step>E</step>					<octave>4</octave>				</pitch>				<duration>6720</duration>				<voice>1</voice>				<type>quarter</type>				<stem default-y="19.00">up</stem>				<staff>1</staff>			</note>			<note>				<chord/>				<pitch>					<step>D</step>					<octave>5</octave>				</pitch>				<duration>6720</duration>				<voice>1</voice>				<type>quarter</type>				<stem default-y="19.00">up</stem>				<staff>1</staff>			</note>			<note>				<pitch>					<step>E</step>					<octave>4</octave>				</pitch>				<duration>6720</duration>				<voice>1</voice>				<type>quarter</type>				<stem default-y="15.25">up</stem>				<staff>1</staff>			</note>			<note>				<chord/>				<pitch>					<step>C</step>					<alter>1</alter>					<octave>5</octave>				</pitch>				<duration>6720</duration>				<voice>1</voice>				<type>quarter</type>				<stem default-y="15.25">up</stem>				<staff>1</staff>			</note>		</measure>		<!--==========================[1,13]=============================-->		<measure number="13" width="368">			<print new-system="yes">				<system-layout>					<system-margins>						<left-margin>75.844</left-margin>						<right-margin>0.000</right-margin>					</system-margins>					<system-distance>134.675</system-distance>				</system-layout>				<staff-layout number="2">					<staff-distance>65.000</staff-distance>				</staff-layout>			</print>			<attributes>			</attributes>			<direction placement="above">				<direction-type>					<dynamics font-family="MScoreText" font-weight="normal" font-style="normal" relative-x="62.86" default-y="24.90">						<mp/>					</dynamics>				</direction-type>				<staff>2</staff>			</direction>			<note>				<pitch>					<step>D</step>					<octave>3</octave>				</pitch>				<duration>3360</duration>				<voice>4</voice>				<type>eighth</type>				<stem default-y="-51.05">down</stem>				<staff>2</staff>				<beam number="1">begin</beam>			</note>			<note>				<pitch>					<step>A</step>					<octave>3</octave>				</pitch>				<duration>3360</duration>				<voice>4</voice>				<type>eighth</type>				<stem default-y="-47.20">down</stem>				<staff>2</staff>				<beam number="1">continue</beam>			</note>			<note>				<pitch>					<step>D</step>					<octave>4</octave>				</pitch>				<duration>3360</duration>				<voice>4</voice>				<type>eighth</type>				<stem default-y="-42.40">down</stem>				<staff>2</staff>				<beam number="1">continue</beam>			</note>			<note>				<pitch>					<step>A</step>					<octave>3</octave>				</pitch>				<duration>3360</duration>				<voice>4</voice>				<type>eighth</type>				<stem default-y="-38.55">down</stem>				<staff>2</staff>				<beam number="1">end</beam>			</note>			<note>				<pitch>					<step>A</step>					<octave>2</octave>				</pitch>				<duration>3360</duration>				<voice>4</voice>				<type>eighth</type>				<stem default-y="-63.55">down</stem>				<staff>2</staff>				<beam number="1">begin</beam>			</note>			<note>				<pitch>					<step>E</step>					<octave>3</octave>				</pitch>				<duration>3360</duration>				<voice>4</voice>				<type>eighth</type>				<stem default-y="-59.38">down</stem>				<staff>2</staff>				<beam number="1">continue</beam>			</note>			<note>				<pitch>					<step>A</step>					<octave>3</octave>				</pitch>				<duration>3360</duration>				<voice>4</voice>				<type>eighth</type>				<stem default-y="-55.22">down</stem>				<staff>2</staff>				<beam number="1">continue</beam>			</note>			<note>				<pitch>					<step>E</step>					<octave>3</octave>				</pitch>				<duration>3360</duration>				<voice>4</voice>				<type>eighth</type>				<stem default-y="-51.05">down</stem>				<staff>2</staff>				<beam number="1">end</beam>			</note>			<backup>				<duration>26880</duration>			</backup>			<direction placement="above">				<direction-type>					<words font-family="FreeSerif" font-size="8" font-weight="normal" font-style="normal" relative-x="0.00" default-y="23.60">1 3</words>				</direction-type>				<staff>1</staff>			</direction>			<note>				<pitch>					<step>A</step>					<octave>5</octave>				</pitch>				<duration>3360</duration>				<voice>1</voice>				<type>eighth</type>				<stem default-y="-31.05">down</stem>				<staff>1</staff>				<beam number="1">begin</beam>			</note>			<note>				<pitch>					<step>F</step>					<alter>1</alter>					<octave>5</octave>				</pitch>				<duration>1680</duration>				<voice>1</voice>				<type>16th</type>				<stem default-y="-31.05">down</stem>				<staff>1</staff>				<beam number="1">continue</beam>			</note>			<note>				<pitch>					<step>G</step>					<octave>5</octave>				</pitch>				<duration>1680</duration>				<voice>1</voice>				<type>16th</type>				<stem default-y="-31.05">down</stem>				<staff>1</staff>				<beam number="1">end</beam>			</note>			<note>				<pitch>					<step>A</step>					<octave>5</octave>				</pitch>				<duration>3360</duration>				<voice>1</voice>				<type>eighth</type>				<stem default-y="-31.05">down</stem>				<staff>1</staff>				<beam number="1">begin</beam>			</note>			<note>				<pitch>					<step>F</step>					<alter>1</alter>					<octave>5</octave>				</pitch>				<duration>1680</duration>				<voice>1</voice>				<type>16th</type>				<stem default-y="-31.05">down</stem>				<staff>1</staff>				<beam number="1">continue</beam>			</note>			<note>				<pitch>					<step>G</step>					<octave>5</octave>				</pitch>				<duration>1680</duration>				<voice>1</voice>				<type>16th</type>				<stem default-y="-31.05">down</stem>				<staff>1</staff>				<beam number="1">end</beam>			</note>			<note>				<pitch>					<step>A</step>					<octave>5</octave>				</pitch>				<duration>1680</duration>				<voice>1</voice>				<type>16th</type>				<stem default-y="-58.55">down</stem>				<staff>1</staff>				<beam number="1">begin</beam>			</note>			<note>				<pitch>					<step>A</step>					<octave>4</octave>				</pitch>				<duration>1680</duration>				<voice>1</voice>				<type>16th</type>				<stem default-y="-58.55">down</stem>				<staff>1</staff>				<beam number="1">continue</beam>			</note>			<note>				<pitch>					<step>B</step>					<octave>4</octave>				</pitch>				<duration>1680</duration>				<voice>1</voice>				<type>16th</type>				<stem default-y="-58.55">down</stem>				<staff>1</staff>				<beam number="1">continue</beam>			</note>			<note>				<pitch>					<step>C</step>					<alter>1</alter>					<octave>5</octave>				</pitch>				<duration>1680</duration>				<voice>1</voice>				<type>16th</type>				<stem default-y="-58.55">down</stem>				<staff>1</staff>				<beam number="1">end</beam>			</note>			<note>				<pitch>					<step>D</step>					<octave>5</octave>				</pitch>				<duration>1680</duration>				<voice>1</voice>				<type>16th</type>				<stem default-y="-41.05">down</stem>				<staff>1</staff>				<beam number="1">begin</beam>			</note>			<note>				<pitch>					<step>E</step>					<octave>5</octave>				</pitch>				<duration>1680</duration>				<voice>1</voice>				<type>16th</type>				<stem default-y="-37.72">down</stem>				<staff>1</staff>				<beam number="1">continue</beam>			</note>			<note>				<pitch>					<step>F</step>					<alter>1</alter>					<octave>5</octave>				</pitch>				<duration>1680</duration>				<voice>1</voice>				<type>16th</type>				<stem default-y="-34.38">down</stem>				<staff>1</staff>				<beam number="1">continue</beam>			</note>			<note>				<pitch>					<step>G</step>					<octave>5</octave>				</pitch>				<duration>1680</duration>				<voice>1</voice>				<type>16th</type>				<stem default-y="-31.05">down</stem>				<staff>1</staff>				<beam number="1">end</beam>			</note>		</measure>		<!--==========================[1,14]=============================-->		<measure number="14" width="315">			<note>				<pitch>					<step>B</step>					<octave>2</octave>				</pitch>				<duration>3360</duration>				<voice>4</voice>				<type>eighth</type>				<stem default-y="-58.55">down</stem>				<staff>2</staff>				<beam number="1">begin</beam>			</note>			<note>				<pitch>					<step>F</step>					<alter>1</alter>					<octave>3</octave>				</pitch>				<duration>3360</duration>				<voice>4</voice>				<type>eighth</type>				<stem default-y="-53.93">down</stem>				<staff>2</staff>				<beam number="1">continue</beam>			</note>			<note>				<pitch>					<step>B</step>					<octave>3</octave>				</pitch>				<duration>3360</duration>				<voice>4</voice>				<type>eighth</type>				<stem default-y="-48.17">down</stem>				<staff>2</staff>				<beam number="1">continue</beam>			</note>			<note>				<pitch>					<step>F</step>					<alter>1</alter>					<octave>3</octave>				</pitch>				<duration>3360</duration>				<voice>4</voice>				<type>eighth</type>				<stem default-y="-43.55">down</stem>				<staff>2</staff>				<beam number="1">end</beam>			</note>			<note>				<pitch>					<step>F</step>					<alter>1</alter>					<octave>2</octave>				</pitch>				<duration>3360</duration>				<voice>4</voice>				<type>eighth</type>				<stem default-y="19.50">up</stem>				<staff>2</staff>				<beam number="1">begin</beam>			</note>			<note>				<pitch>					<step>C</step>					<alter>1</alter>					<octave>3</octave>				</pitch>				<duration>3360</duration>				<voice>4</voice>				<type>eighth</type>				<stem default-y="19.50">up</stem>				<staff>2</staff>				<beam number="1">continue</beam>			</note>			<note>				<pitch>					<step>F</step>					<alter>1</alter>					<octave>3</octave>				</pitch>				<duration>3360</duration>				<voice>4</voice>				<type>eighth</type>				<stem default-y="19.50">up</stem>				<staff>2</staff>				<beam number="1">continue</beam>			</note>			<note>				<pitch>					<step>C</step>					<alter>1</alter>					<octave>3</octave>				</pitch>				<duration>3360</duration>				<voice>4</voice>				<type>eighth</type>				<stem default-y="19.50">up</stem>				<staff>2</staff>				<beam number="1">end</beam>			</note>			<backup>				<duration>26880</duration>			</backup>			<note>				<pitch>					<step>F</step>					<alter>1</alter>					<octave>5</octave>				</pitch>				<duration>3360</duration>				<voice>1</voice>				<type>eighth</type>				<stem default-y="-41.05">down</stem>				<staff>1</staff>				<beam number="1">begin</beam>			</note>			<note>				<pitch>					<step>D</step>					<octave>5</octave>				</pitch>				<duration>1680</duration>				<voice>1</voice>				<type>16th</type>				<stem default-y="-41.05">down</stem>				<staff>1</staff>				<beam number="1">continue</beam>			</note>			<note>				<pitch>					<step>E</step>					<octave>5</octave>				</pitch>				<duration>1680</duration>				<voice>1</voice>				<type>16th</type>				<stem default-y="-41.05">down</stem>				<staff>1</staff>				<beam number="1">end</beam>			</note>			<note>				<pitch>					<step>F</step>					<alter>1</alter>					<octave>5</octave>				</pitch>				<duration>3360</duration>				<voice>1</voice>				<type>eighth</type>				<stem default-y="-68.55">down</stem>				<staff>1</staff>				<beam number="1">begin</beam>			</note>			<note>				<pitch>					<step>F</step>					<alter>1</alter>					<octave>4</octave>				</pitch>				<duration>1680</duration>				<voice>1</voice>				<type>16th</type>				<stem default-y="-68.55">down</stem>				<staff>1</staff>				<beam number="1">continue</beam>			</note>			<note>				<pitch>					<step>G</step>					<octave>4</octave>				</pitch>				<duration>1680</duration>				<voice>1</voice>				<type>16th</type>				<stem default-y="-68.55">down</stem>				<staff>1</staff>				<beam number="1">end</beam>			</note>			<note>				<pitch>					<step>A</step>					<octave>4</octave>				</pitch>				<duration>1680</duration>				<voice>1</voice>				<type>16th</type>				<stem default-y="12.00">up</stem>				<staff>1</staff>				<beam number="1">begin</beam>			</note>			<note>				<pitch>					<step>B</step>					<octave>4</octave>				</pitch>				<duration>1680</duration>				<voice>1</voice>				<type>16th</type>				<stem default-y="12.00">up</stem>				<staff>1</staff>				<beam number="1">continue</beam>			</note>			<note>				<pitch>					<step>A</step>					<octave>4</octave>				</pitch>				<duration>1680</duration>				<voice>1</voice>				<type>16th</type>				<stem default-y="12.00">up</stem>				<staff>1</staff>				<beam number="1">continue</beam>			</note>			<note>				<pitch>					<step>G</step>					<octave>4</octave>				</pitch>				<duration>1680</duration>				<voice>1</voice>				<type>16th</type>				<stem default-y="12.00">up</stem>				<staff>1</staff>				<beam number="1">end</beam>			</note>			<note>				<pitch>					<step>A</step>					<octave>4</octave>				</pitch>				<duration>1680</duration>				<voice>1</voice>				<type>16th</type>				<stem default-y="9.50">up</stem>				<staff>1</staff>				<beam number="1">begin</beam>			</note>			<note>				<pitch>					<step>F</step>					<alter>1</alter>					<octave>4</octave>				</pitch>				<duration>1680</duration>				<voice>1</voice>				<type>16th</type>				<stem default-y="9.50">up</stem>				<staff>1</staff>				<beam number="1">continue</beam>			</note>			<note>				<pitch>					<step>G</step>					<octave>4</octave>				</pitch>				<duration>1680</duration>				<voice>1</voice>				<type>16th</type>				<stem default-y="9.50">up</stem>				<staff>1</staff>				<beam number="1">continue</beam>			</note>			<note>				<pitch>					<step>A</step>					<octave>4</octave>				</pitch>				<duration>1680</duration>				<voice>1</voice>				<type>16th</type>				<stem default-y="9.50">up</stem>				<staff>1</staff>				<beam number="1">end</beam>			</note>		</measure>		<!--==========================[1,15]=============================-->		<measure number="15" width="317">			<note>				<pitch>					<step>G</step>					<octave>2</octave>				</pitch>				<duration>3360</duration>				<voice>4</voice>				<type>eighth</type>				<stem default-y="22.00">up</stem>				<staff>2</staff>				<beam number="1">begin</beam>			</note>			<note>				<pitch>					<step>D</step>					<octave>3</octave>				</pitch>				<duration>3360</duration>				<voice>4</voice>				<type>eighth</type>				<stem default-y="22.00">up</stem>				<staff>2</staff>				<beam number="1">continue</beam>			</note>			<note>				<pitch>					<step>G</step>					<octave>3</octave>				</pitch>				<duration>3360</duration>				<voice>4</voice>				<type>eighth</type>				<stem default-y="22.00">up</stem>				<staff>2</staff>				<beam number="1">continue</beam>			</note>			<note>				<pitch>					<step>D</step>					<octave>3</octave>				</pitch>				<duration>3360</duration>				<voice>4</voice>				<type>eighth</type>				<stem default-y="22.00">up</stem>				<staff>2</staff>				<beam number="1">end</beam>			</note>			<note>				<pitch>					<step>D</step>					<octave>2</octave>				</pitch>				<duration>3360</duration>				<voice>4</voice>				<type>eighth</type>				<stem default-y="9.50">up</stem>				<staff>2</staff>				<beam number="1">begin</beam>			</note>			<note>				<pitch>					<step>A</step>					<octave>2</octave>				</pitch>				<duration>3360</duration>				<voice>4</voice>				<type>eighth</type>				<stem default-y="9.50">up</stem>				<staff>2</staff>				<beam number="1">continue</beam>			</note>			<note>				<pitch>					<step>D</step>					<octave>3</octave>				</pitch>				<duration>3360</duration>				<voice>4</voice>				<type>eighth</type>				<stem default-y="9.50">up</stem>				<staff>2</staff>				<beam number="1">continue</beam>			</note>			<note>				<pitch>					<step>A</step>					<octave>2</octave>				</pitch>				<duration>3360</duration>				<voice>4</voice>				<type>eighth</type>				<stem default-y="9.50">up</stem>				<staff>2</staff>				<beam number="1">end</beam>			</note>			<backup>				<duration>26880</duration>			</backup>			<note>				<pitch>					<step>G</step>					<octave>4</octave>				</pitch>				<duration>3360</duration>				<voice>1</voice>				<type>eighth</type>				<stem default-y="12.00">up</stem>				<staff>1</staff>				<beam number="1">begin</beam>			</note>			<note>				<pitch>					<step>B</step>					<octave>4</octave>				</pitch>				<duration>1680</duration>				<voice>1</voice>				<type>16th</type>				<stem default-y="12.00">up</stem>				<staff>1</staff>				<beam number="1">continue</beam>			</note>			<note>				<pitch>					<step>A</step>					<octave>4</octave>				</pitch>				<duration>1680</duration>				<voice>1</voice>				<type>16th</type>				<stem default-y="12.00">up</stem>				<staff>1</staff>				<beam number="1">end</beam>			</note>			<note>				<pitch>					<step>G</step>					<octave>4</octave>				</pitch>				<duration>3360</duration>				<voice>1</voice>				<type>eighth</type>				<stem default-y="0.25">up</stem>				<staff>1</staff>				<beam number="1">begin</beam>			</note>			<note>				<pitch>					<step>F</step>					<alter>1</alter>					<octave>4</octave>				</pitch>				<duration>1680</duration>				<voice>1</voice>				<type>16th</type>				<stem default-y="-5.90">up</stem>				<staff>1</staff>				<beam number="1">continue</beam>			</note>			<note>				<pitch>					<step>E</step>					<octave>4</octave>				</pitch>				<duration>1680</duration>				<voice>1</voice>				<type>16th</type>				<stem default-y="-9.75">up</stem>				<staff>1</staff>				<beam number="1">end</beam>			</note>			<note>				<pitch>					<step>F</step>					<alter>1</alter>					<octave>4</octave>				</pitch>				<duration>1680</duration>				<voice>1</voice>				<type>16th</type>				<stem default-y="0.25">up</stem>				<staff>1</staff>				<beam number="1">begin</beam>			</note>			<note>				<pitch>					<step>E</step>					<octave>4</octave>				</pitch>				<duration>1680</duration>				<voice>1</voice>				<type>16th</type>				<stem default-y="-0.58">up</stem>				<staff>1</staff>				<beam number="1">continue</beam>			</note>			<note>				<pitch>					<step>D</step>					<octave>4</octave>				</pitch>				<duration>1680</duration>				<voice>1</voice>				<type>16th</type>				<stem default-y="-1.42">up</stem>				<staff>1</staff>				<beam number="1">continue</beam>			</note>			<note>				<pitch>					<step>E</step>					<octave>4</octave>				</pitch>				<duration>1680</duration>				<voice>1</voice>				<type>16th</type>				<stem default-y="-2.25">up</stem>				<staff>1</staff>				<beam number="1">end</beam>			</note>			<note>				<pitch>					<step>F</step>					<alter>1</alter>					<octave>4</octave>				</pitch>				<duration>1680</duration>				<voice>1</voice>				<type>16th</type>				<stem default-y="0.25">up</stem>				<staff>1</staff>				<beam number="1">begin</beam>			</note>			<note>				<pitch>					<step>G</step>					<octave>4</octave>				</pitch>				<duration>1680</duration>				<voice>1</voice>				<type>16th</type>				<stem default-y="3.58">up</stem>				<staff>1</staff>				<beam number="1">continue</beam>			</note>			<note>				<pitch>					<step>A</step>					<octave>4</octave>				</pitch>				<duration>1680</duration>				<voice>1</voice>				<type>16th</type>				<stem default-y="6.92">up</stem>				<staff>1</staff>				<beam number="1">continue</beam>			</note>			<note>				<pitch>					<step>B</step>					<octave>4</octave>				</pitch>				<duration>1680</duration>				<voice>1</voice>				<type>16th</type>				<stem default-y="10.25">up</stem>				<staff>1</staff>				<beam number="1">end</beam>			</note>		</measure>		<!--==========================[1,16]=============================-->		<measure number="16" width="368">			<print new-system="yes">				<system-layout>					<system-margins>						<left-margin>75.844</left-margin>						<right-margin>0.000</right-margin>					</system-margins>					<system-distance>134.675</system-distance>				</system-layout>				<staff-layout number="2">					<staff-distance>65.000</staff-distance>				</staff-layout>			</print>			<attributes>			</attributes>			<note>				<pitch>					<step>G</step>					<octave>2</octave>				</pitch>				<duration>3360</duration>				<voice>4</voice>				<type>eighth</type>				<stem default-y="22.00">up</stem>				<staff>2</staff>				<beam number="1">begin</beam>			</note>			<note>				<pitch>					<step>D</step>					<octave>3</octave>				</pitch>				<duration>3360</duration>				<voice>4</voice>				<type>eighth</type>				<stem default-y="22.00">up</stem>				<staff>2</staff>				<beam number="1">continue</beam>			</note>			<note>				<pitch>					<step>G</step>					<octave>3</octave>				</pitch>				<duration>3360</duration>				<voice>4</voice>				<type>eighth</type>				<stem default-y="22.00">up</stem>				<staff>2</staff>				<beam number="1">continue</beam>			</note>			<note>				<pitch>					<step>D</step>					<octave>3</octave>				</pitch>				<duration>3360</duration>				<voice>4</voice>				<type>eighth</type>				<stem default-y="22.00">up</stem>				<staff>2</staff>				<beam number="1">end</beam>			</note>			<note>				<pitch>					<step>A</step>					<octave>2</octave>				</pitch>				<duration>3360</duration>				<voice>4</voice>				<type>eighth</type>				<stem default-y="-63.55">down</stem>				<staff>2</staff>				<beam number="1">begin</beam>			</note>			<note>				<pitch>					<step>E</step>					<octave>3</octave>				</pitch>				<duration>3360</duration>				<voice>4</voice>				<type>eighth</type>				<stem default-y="-59.38">down</stem>				<staff>2</staff>				<beam number="1">continue</beam>			</note>			<note>				<pitch>					<step>A</step>					<octave>3</octave>				</pitch>				<duration>3360</duration>				<voice>4</voice>				<type>eighth</type>				<stem default-y="-55.22">down</stem>				<staff>2</staff>				<beam number="1">continue</beam>			</note>			<note>				<pitch>					<step>E</step>					<octave>3</octave>				</pitch>				<duration>3360</duration>				<voice>4</voice>				<type>eighth</type>				<stem default-y="-51.05">down</stem>				<staff>2</staff>				<beam number="1">end</beam>			</note>			<backup>				<duration>26880</duration>			</backup>			<direction placement="above">				<direction-type>					<words font-family="FreeSerif" font-size="8" font-weight="normal" font-style="normal" relative-x="0.00" default-y="23.60">1 6</words>				</direction-type>				<staff>1</staff>			</direction>			<note>				<pitch>					<step>G</step>					<octave>4</octave>				</pitch>				<duration>3360</duration>				<voice>1</voice>				<type>eighth</type>				<stem default-y="12.00">up</stem>				<staff>1</staff>				<beam number="1">begin</beam>			</note>			<note>				<pitch>					<step>B</step>					<octave>4</octave>				</pitch>				<duration>1680</duration>				<voice>1</voice>				<type>16th</type>				<stem default-y="12.00">up</stem>				<staff>1</staff>				<beam number="1">continue</beam>			</note>			<note>				<pitch>					<step>A</step>					<octave>4</octave>				</pitch>				<duration>1680</duration>				<voice>1</voice>				<type>16th</type>				<stem default-y="12.00">up</stem>				<staff>1</staff>				<beam number="1">end</beam>			</note>			<note>				<pitch>					<step>B</step>					<octave>4</octave>				</pitch>				<duration>3360</duration>				<voice>1</voice>				<type>eighth</type>				<stem default-y="-51.05">down</stem>				<staff>1</staff>				<beam number="1">begin</beam>			</note>			<note>				<pitch>					<step>C</step>					<alter>1</alter>					<octave>5</octave>				</pitch>				<duration>1680</duration>				<voice>1</voice>				<type>16th</type>				<stem default-y="-44.90">down</stem>				<staff>1</staff>				<beam number="1">continue</beam>			</note>			<note>				<pitch>					<step>D</step>					<octave>5</octave>				</pitch>				<duration>1680</duration>				<voice>1</voice>				<type>16th</type>				<stem default-y="-41.05">down</stem>				<staff>1</staff>				<beam number="1">end</beam>			</note>			<note>				<pitch>					<step>C</step>					<alter>1</alter>					<octave>5</octave>				</pitch>				<duration>1680</duration>				<voice>1</voice>				<type>16th</type>				<stem default-y="-58.55">down</stem>				<staff>1</staff>				<beam number="1">begin</beam>			</note>			<note>				<pitch>					<step>B</step>					<octave>4</octave>				</pitch>				<duration>1680</duration>				<voice>1</voice>				<type>16th</type>				<stem default-y="-58.55">down</stem>				<staff>1</staff>				<beam number="1">continue</beam>			</note>			<note>				<pitch>					<step>A</step>					<octave>4</octave>				</pitch>				<duration>1680</duration>				<voice>1</voice>				<type>16th</type>				<stem default-y="-58.55">down</stem>				<staff>1</staff>				<beam number="1">continue</beam>			</note>			<note>				<pitch>					<step>B</step>					<octave>4</octave>				</pitch>				<duration>1680</duration>				<voice>1</voice>				<type>16th</type>				<stem default-y="-58.55">down</stem>				<staff>1</staff>				<beam number="1">end</beam>			</note>			<note>				<pitch>					<step>C</step>					<alter>1</alter>					<octave>5</octave>				</pitch>				<duration>1680</duration>				<voice>1</voice>				<type>16th</type>				<stem default-y="-48.55">down</stem>				<staff>1</staff>				<beam number="1">begin</beam>			</note>			<note>				<pitch>					<step>D</step>					<octave>5</octave>				</pitch>				<duration>1680</duration>				<voice>1</voice>				<type>16th</type>				<stem default-y="-45.22">down</stem>				<staff>1</staff>				<beam number="1">continue</beam>			</note>			<note>				<pitch>					<step>E</step>					<octave>5</octave>				</pitch>				<duration>1680</duration>				<voice>1</voice>				<type>16th</type>				<stem default-y="-41.88">down</stem>				<staff>1</staff>				<beam number="1">continue</beam>			</note>			<note>				<pitch>					<step>F</step>					<alter>1</alter>					<octave>5</octave>				</pitch>				<duration>1680</duration>				<voice>1</voice>				<type>16th</type>				<stem default-y="-38.55">down</stem>				<staff>1</staff>				<beam number="1">end</beam>			</note>		</measure>		<!--==========================[1,17]=============================-->		<measure number="17" width="315">			<note>				<pitch>					<step>F</step>					<alter>1</alter>					<octave>5</octave>				</pitch>				<duration>3360</duration>				<voice>1</voice>				<type>eighth</type>				<stem default-y="-41.05">down</stem>				<staff>1</staff>				<beam number="1">begin</beam>			</note>			<note>				<chord/>				<pitch>					<step>A</step>					<octave>5</octave>				</pitch>				<duration>3360</duration>				<voice>1</voice>				<type>eighth</type>				<stem default-y="-41.05">down</stem>				<staff>1</staff>			</note>			<note>				<pitch>					<step>F</step>					<alter>1</alter>					<octave>5</octave>				</pitch>				<duration>1680</duration>				<voice>1</voice>				<type>16th</type>				<stem default-y="-41.05">down</stem>				<staff>1</staff>				<beam number="1">continue</beam>			</note>			<note>				<chord/>				<pitch>					<step>D</step>					<octave>5</octave>				</pitch>				<duration>1680</duration>				<voice>1</voice>				<type>16th</type>				<stem default-y="-41.05">down</stem>				<staff>1</staff>			</note>			<note>				<pitch>					<step>G</step>					<octave>5</octave>				</pitch>				<duration>1680</duration>				<voice>1</voice>				<type>16th</type>				<stem default-y="-41.05">down</stem>				<staff>1</staff>				<beam number="1">end</beam>			</note>			<note>				<chord/>				<pitch>					<step>E</step>					<octave>5</octave>				</pitch>				<duration>1680</duration>				<voice>1</voice>				<type>16th</type>				<stem default-y="-41.05">down</stem>				<staff>1</staff>			</note>			<note>				<pitch>					<step>A</step>					<octave>5</octave>				</pitch>				<duration>3360</duration>				<voice>1</voice>				<type>eighth</type>				<stem default-y="-41.05">down</stem>				<staff>1</staff>				<beam number="1">begin</beam>			</note>			<note>				<chord/>				<pitch>					<step>F</step>					<alter>1</alter>					<octave>5</octave>				</pitch>				<duration>3360</duration>				<voice>1</voice>				<type>eighth</type>				<stem default-y="-41.05">down</stem>				<staff>1</staff>			</note>			<note>				<pitch>					<step>D</step>					<octave>5</octave>				</pitch>				<duration>1680</duration>				<voice>1</voice>				<type>16th</type>				<stem default-y="-41.05">down</stem>				<staff>1</staff>				<beam number="1">continue</beam>			</note>			<note>				<chord/>				<pitch>					<step>F</step>					<alter>1</alter>					<octave>5</octave>				</pitch>				<duration>1680</duration>				<voice>1</voice>				<type>16th</type>				<stem default-y="-41.05">down</stem>				<staff>1</staff>			</note>			<note>				<pitch>					<step>E</step>					<octave>5</octave>				</pitch>				<duration>1680</duration>				<voice>1</voice>				<type>16th</type>				<stem default-y="-41.05">down</stem>				<staff>1</staff>				<beam number="1">end</beam>			</note>			<note>				<chord/>				<pitch>					<step>G</step>					<octave>5</octave>				</pitch>				<duration>1680</duration>				<voice>1</voice>				<type>16th</type>				<stem default-y="-41.05">down</stem>				<staff>1</staff>			</note>			<note>				<pitch>					<step>C</step>					<alter>1</alter>					<octave>5</octave>				</pitch>				<duration>1680</duration>				<voice>1</voice>				<type>16th</type>				<stem default-y="-58.55">down</stem>				<staff>1</staff>				<beam number="1">begin</beam>			</note>			<note>				<chord/>				<pitch>					<step>A</step>					<octave>5</octave>				</pitch>				<duration>1680</duration>				<voice>1</voice>				<type>16th</type>				<stem default-y="-58.55">down</stem>				<staff>1</staff>			</note>			<note>				<pitch>					<step>A</step>					<octave>4</octave>				</pitch>				<duration>1680</duration>				<voice>1</voice>				<type>16th</type>				<stem default-y="-58.55">down</stem>				<staff>1</staff>				<beam number="1">continue</beam>			</note>			<note>				<pitch>					<step>B</step>					<octave>4</octave>				</pitch>				<duration>1680</duration>				<voice>1</voice>				<type>16th</type>				<stem default-y="-58.55">down</stem>				<staff>1</staff>				<beam number="1">continue</beam>			</note>			<note>				<pitch>					<step>C</step>					<alter>1</alter>					<octave>5</octave>				</pitch>				<duration>1680</duration>				<voice>1</voice>				<type>16th</type>				<stem default-y="-58.55">down</stem>				<staff>1</staff>				<beam number="1">end</beam>			</note>			<note>				<pitch>					<step>D</step>					<octave>5</octave>				</pitch>				<duration>1680</duration>				<voice>1</voice>				<type>16th</type>				<stem default-y="-41.05">down</stem>				<staff>1</staff>				<beam number="1">begin</beam>			</note>			<note>				<pitch>					<step>E</step>					<octave>5</octave>				</pitch>				<duration>1680</duration>				<voice>1</voice>				<type>16th</type>				<stem default-y="-37.72">down</stem>				<staff>1</staff>				<beam number="1">continue</beam>			</note>			<note>				<pitch>					<step>F</step>					<alter>1</alter>					<octave>5</octave>				</pitch>				<duration>1680</duration>				<voice>1</voice>				<type>16th</type>				<stem default-y="-34.38">down</stem>				<staff>1</staff>				<beam number="1">continue</beam>			</note>			<note>				<pitch>					<step>G</step>					<octave>5</octave>				</pitch>				<duration>1680</duration>				<voice>1</voice>				<type>16th</type>				<stem default-y="-31.05">down</stem>				<staff>1</staff>				<beam number="1">end</beam>			</note>			<backup>				<duration>26880</duration>			</backup>			<note>				<pitch>					<step>D</step>					<octave>3</octave>				</pitch>				<duration>3360</duration>				<voice>4</voice>				<type>eighth</type>				<stem default-y="-51.05">down</stem>				<staff>2</staff>				<beam number="1">begin</beam>			</note>			<note>				<pitch>					<step>A</step>					<octave>3</octave>				</pitch>				<duration>3360</duration>				<voice>4</voice>				<type>eighth</type>				<stem default-y="-47.20">down</stem>				<staff>2</staff>				<beam number="1">continue</beam>			</note>			<note>				<pitch>					<step>D</step>					<octave>4</octave>				</pitch>				<duration>3360</duration>				<voice>4</voice>				<type>eighth</type>				<stem default-y="-42.40">down</stem>				<staff>2</staff>				<beam number="1">continue</beam>			</note>			<note>				<pitch>					<step>A</step>					<octave>3</octave>				</pitch>				<duration>3360</duration>				<voice>4</voice>				<type>eighth</type>				<stem default-y="-38.55">down</stem>				<staff>2</staff>				<beam number="1">end</beam>			</note>			<note>				<pitch>					<step>A</step>					<octave>2</octave>				</pitch>				<duration>3360</duration>				<voice>4</voice>				<type>eighth</type>				<stem default-y="-63.55">down</stem>				<staff>2</staff>				<beam number="1">begin</beam>			</note>			<note>				<pitch>					<step>E</step>					<octave>3</octave>				</pitch>				<duration>3360</duration>				<voice>4</voice>				<type>eighth</type>				<stem default-y="-59.38">down</stem>				<staff>2</staff>				<beam number="1">continue</beam>			</note>			<note>				<pitch>					<step>A</step>					<octave>3</octave>				</pitch>				<duration>3360</duration>				<voice>4</voice>				<type>eighth</type>				<stem default-y="-55.22">down</stem>				<staff>2</staff>				<beam number="1">continue</beam>			</note>			<note>				<pitch>					<step>E</step>					<octave>3</octave>				</pitch>				<duration>3360</duration>				<voice>4</voice>				<type>eighth</type>				<stem default-y="-51.05">down</stem>				<staff>2</staff>				<beam number="1">end</beam>			</note>		</measure>		<!--==========================[1,18]=============================-->		<measure number="18" width="317">			<note>				<pitch>					<step>D</step>					<octave>5</octave>				</pitch>				<duration>3360</duration>				<voice>1</voice>				<type>eighth</type>				<stem default-y="-51.05">down</stem>				<staff>1</staff>				<beam number="1">begin</beam>			</note>			<note>				<chord/>				<pitch>					<step>F</step>					<alter>1</alter>					<octave>5</octave>				</pitch>				<duration>3360</duration>				<voice>1</voice>				<type>eighth</type>				<stem default-y="-51.05">down</stem>				<staff>1</staff>			</note>			<note>				<pitch>					<step>D</step>					<octave>5</octave>				</pitch>				<duration>1680</duration>				<voice>1</voice>				<type>16th</type>				<stem default-y="-51.05">down</stem>				<staff>1</staff>				<beam number="1">continue</beam>			</note>			<note>				<chord/>				<pitch>					<step>B</step>					<octave>4</octave>				</pitch>				<duration>1680</duration>				<voice>1</voice>				<type>16th</type>				<stem default-y="-51.05">down</stem>				<staff>1</staff>			</note>			<note>				<pitch>					<step>E</step>					<octave>5</octave>				</pitch>				<duration>1680</duration>				<voice>1</voice>				<type>16th</type>				<stem default-y="-51.05">down</stem>				<staff>1</staff>				<beam number="1">end</beam>			</note>			<note>				<chord/>				<pitch>					<step>C</step>					<alter>1</alter>					<octave>5</octave>				</pitch>				<duration>1680</duration>				<voice>1</voice>				<type>16th</type>				<stem default-y="-51.05">down</stem>				<staff>1</staff>			</note>			<note>				<pitch>					<step>F</step>					<alter>1</alter>					<octave>5</octave>				</pitch>				<duration>3360</duration>				<voice>1</voice>				<type>eighth</type>				<stem default-y="-68.55">down</stem>				<staff>1</staff>				<beam number="1">begin</beam>			</note>			<note>				<chord/>				<pitch>					<step>D</step>					<octave>5</octave>				</pitch>				<duration>3360</duration>				<voice>1</voice>				<type>eighth</type>				<stem default-y="-68.55">down</stem>				<staff>1</staff>			</note>			<note>				<pitch>					<step>F</step>					<alter>1</alter>					<octave>4</octave>				</pitch>				<duration>1680</duration>				<voice>1</voice>				<type>16th</type>				<stem default-y="-68.55">down</stem>				<staff>1</staff>				<beam number="1">continue</beam>			</note>			<note>				<pitch>					<step>G</step>					<octave>4</octave>				</pitch>				<duration>1680</duration>				<voice>1</voice>				<type>16th</type>				<stem default-y="-68.55">down</stem>				<staff>1</staff>				<beam number="1">end</beam>			</note>			<note>				<pitch>					<step>F</step>					<alter>1</alter>					<octave>4</octave>				</pitch>				<duration>1680</duration>				<voice>1</voice>				<type>16th</type>				<stem default-y="12.00">up</stem>				<staff>1</staff>				<beam number="1">begin</beam>			</note>			<note>				<chord/>				<pitch>					<step>A</step>					<octave>4</octave>				</pitch>				<duration>1680</duration>				<voice>1</voice>				<type>16th</type>				<stem default-y="12.00">up</stem>				<staff>1</staff>			</note>			<note>				<pitch>					<step>B</step>					<octave>4</octave>				</pitch>				<duration>1680</duration>				<voice>1</voice>				<type>16th</type>				<stem default-y="12.00">up</stem>				<staff>1</staff>				<beam number="1">continue</beam>			</note>			<note>				<pitch>					<step>A</step>					<octave>4</octave>				</pitch>				<duration>1680</duration>				<voice>1</voice>				<type>16th</type>				<stem default-y="12.00">up</stem>				<staff>1</staff>				<beam number="1">continue</beam>			</note>			<note>				<pitch>					<step>G</step>					<octave>4</octave>				</pitch>				<duration>1680</duration>				<voice>1</voice>				<type>16th</type>				<stem default-y="12.00">up</stem>				<staff>1</staff>				<beam number="1">end</beam>			</note>			<note>				<pitch>					<step>A</step>					<octave>4</octave>				</pitch>				<duration>1680</duration>				<voice>1</voice>				<type>16th</type>				<stem default-y="-58.55">down</stem>				<staff>1</staff>				<beam number="1">begin</beam>			</note>			<note>				<pitch>					<step>D</step>					<octave>5</octave>				</pitch>				<duration>1680</duration>				<voice>1</voice>				<type>16th</type>				<stem default-y="-55.22">down</stem>				<staff>1</staff>				<beam number="1">continue</beam>			</note>			<note>				<pitch>					<step>C</step>					<alter>1</alter>					<octave>5</octave>				</pitch>				<duration>1680</duration>				<voice>1</voice>				<type>16th</type>				<stem default-y="-51.88">down</stem>				<staff>1</staff>				<beam number="1">continue</beam>			</note>			<note>				<pitch>					<step>D</step>					<octave>5</octave>				</pitch>				<duration>1680</duration>				<voice>1</voice>				<type>16th</type>				<stem default-y="-48.55">down</stem>				<staff>1</staff>				<beam number="1">end</beam>			</note>			<backup>				<duration>26880</duration>			</backup>			<note>				<pitch>					<step>B</step>					<octave>2</octave>				</pitch>				<duration>3360</duration>				<voice>4</voice>				<type>eighth</type>				<stem default-y="-58.55">down</stem>				<staff>2</staff>				<beam number="1">begin</beam>			</note>			<note>				<pitch>					<step>F</step>					<alter>1</alter>					<octave>3</octave>				</pitch>				<duration>3360</duration>				<voice>4</voice>				<type>eighth</type>				<stem default-y="-53.93">down</stem>				<staff>2</staff>				<beam number="1">continue</beam>			</note>			<note>				<pitch>					<step>B</step>					<octave>3</octave>				</pitch>				<duration>3360</duration>				<voice>4</voice>				<type>eighth</type>				<stem default-y="-48.17">down</stem>				<staff>2</staff>				<beam number="1">continue</beam>			</note>			<note>				<pitch>					<step>F</step>					<alter>1</alter>					<octave>3</octave>				</pitch>				<duration>3360</duration>				<voice>4</voice>				<type>eighth</type>				<stem default-y="-43.55">down</stem>				<staff>2</staff>				<beam number="1">end</beam>			</note>			<note>				<pitch>					<step>F</step>					<alter>1</alter>					<octave>2</octave>				</pitch>				<duration>3360</duration>				<voice>4</voice>				<type>eighth</type>				<stem default-y="19.50">up</stem>				<staff>2</staff>				<beam number="1">begin</beam>			</note>			<note>				<pitch>					<step>C</step>					<alter>1</alter>					<octave>3</octave>				</pitch>				<duration>3360</duration>				<voice>4</voice>				<type>eighth</type>				<stem default-y="19.50">up</stem>				<staff>2</staff>				<beam number="1">continue</beam>			</note>			<note>				<pitch>					<step>F</step>					<alter>1</alter>					<octave>3</octave>				</pitch>				<duration>3360</duration>				<voice>4</voice>				<type>eighth</type>				<stem default-y="19.50">up</stem>				<staff>2</staff>				<beam number="1">continue</beam>			</note>			<note>				<pitch>					<step>C</step>					<alter>1</alter>					<octave>3</octave>				</pitch>				<duration>3360</duration>				<voice>4</voice>				<type>eighth</type>				<stem default-y="19.50">up</stem>				<staff>2</staff>				<beam number="1">end</beam>			</note>		</measure>	</part></score-partwise>